<svg width="1201" height="34" viewBox="0 0 1201 34" fill="none" xmlns="http://www.w3.org/2000/svg">
<path d="M19.6773 26L12.7004 7.89284H7.86823L0.864264 26H5.26211L6.40229 22.9324H14.1664L15.2794 26H19.6773ZM13.1076 19.539H7.46103L10.2843 11.7477L13.1076 19.539ZM32.4525 17.9101V15.7655H27.5932V10.4718H25.2314V15.7655H20.3449V17.9101H25.2314V23.421H27.5932V17.9101H32.4525ZM48.5879 26.1629C51.9542 26.1629 55.049 24.2626 55.049 20.7334C55.049 17.1229 52.3071 16.2542 49.0766 14.9782C46.6605 14.0552 44.9231 13.3766 44.9502 11.5306C44.9774 9.68455 46.579 8.70725 48.3979 8.70725C49.8367 8.70725 51.4927 9.38593 53.0401 10.6618L54.4789 8.78869C52.66 7.32275 50.5425 6.53548 48.3979 6.53548C45.0859 6.53548 42.507 8.76155 42.507 11.6391C42.507 15.0325 45.4117 16.2542 48.2622 17.3129C50.8411 18.2902 52.5786 18.8603 52.5786 21.0049C52.5786 22.8781 50.9769 23.964 48.6151 23.964C46.7419 23.964 44.6787 23.0953 43.2942 21.3578L41.774 23.1767C43.7014 25.2399 46.1718 26.1629 48.5879 26.1629ZM62.1636 26.1629C63.7382 26.1629 64.634 25.7828 65.367 25.3485L64.7969 23.421C64.1454 23.7739 63.331 24.0997 62.5437 24.0997C61.2949 24.0997 60.942 23.3396 60.942 21.7379V14.6796H65.3127V12.7793H60.942V8.02857L58.7431 8.2729V12.7793H57.0328V14.6796H58.7431V22.0637C58.7431 24.7241 59.829 26.1629 62.1636 26.1629ZM72.9228 26.1629C74.6602 26.1629 76.2891 25.2942 77.2935 23.7196H77.3207V26H79.5196V12.7793H77.3207V19.1861C77.3207 22.3351 75.5018 24.154 73.3843 24.154C71.294 24.154 70.1538 23.0138 70.1538 20.0276V12.7793H67.9549V20.652C67.9549 24.4255 69.8823 26.1629 72.9228 26.1629ZM89.1167 26.1629C91.2614 26.1629 92.9445 25.1584 93.8946 23.5568H93.9218V26H96.0393V6.01968H93.8403V15.1411H93.8132C92.8088 13.5394 91.0985 12.6164 89.0896 12.6164C85.3704 12.6164 82.6286 15.5755 82.6286 19.4847C82.6286 23.5025 85.4519 26.1629 89.1167 26.1629ZM89.4154 24.154C86.7278 24.154 84.8818 22.1451 84.8818 19.4847C84.8818 16.5528 86.9178 14.6253 89.4425 14.6253C92.1029 14.6253 93.9218 16.77 93.9218 19.4847C93.9218 22.2808 91.9129 24.154 89.4154 24.154ZM101.422 10.3632C102.318 10.3632 103.024 9.6574 103.024 8.78869C103.024 7.91999 102.318 7.21416 101.422 7.21416C100.526 7.21416 99.8204 7.91999 99.8204 8.78869C99.8204 9.6574 100.526 10.3632 101.422 10.3632ZM100.309 12.7793V26H102.508V12.7793H100.309ZM112.8 26.1629C116.709 26.1629 119.614 23.421 119.614 19.4032C119.614 15.3855 116.709 12.6164 112.8 12.6164C108.701 12.6164 105.959 15.6026 105.959 19.4032C105.959 23.2038 108.701 26.1629 112.8 26.1629ZM112.8 24.154C110.058 24.154 108.212 22.0365 108.212 19.4032C108.212 16.77 110.031 14.6253 112.8 14.6253C115.352 14.6253 117.361 16.5799 117.361 19.4032C117.361 22.2265 115.325 24.154 112.8 24.154Z" fill="black"/>
<path d="M557.408 11.64V23H558.8V18.232H564.736V23H566.128V11.64H564.736V16.968H558.8V11.64H557.408ZM572.443 23.096C574.747 23.096 576.459 21.48 576.459 19.112C576.459 16.744 574.747 15.112 572.443 15.112C570.027 15.112 568.411 16.872 568.411 19.112C568.411 21.352 570.027 23.096 572.443 23.096ZM572.443 21.912C570.827 21.912 569.739 20.664 569.739 19.112C569.739 17.56 570.811 16.296 572.443 16.296C573.947 16.296 575.131 17.448 575.131 19.112C575.131 20.776 573.931 21.912 572.443 21.912ZM578.552 15.208V23H579.848V19.128C579.848 17.384 580.808 16.296 582.088 16.296C583.256 16.296 583.896 17.208 583.896 18.872V23H585.192V19.128C585.192 17.384 586.168 16.296 587.384 16.296C588.568 16.296 589.16 17.208 589.16 18.872V23H590.456V18.52C590.456 16.296 589.496 15.112 587.768 15.112C586.552 15.112 585.496 15.72 584.904 16.776H584.888C584.488 15.704 583.64 15.112 582.472 15.112C581.432 15.112 580.456 15.672 579.864 16.616H579.848V15.208H578.552ZM599.796 18.968C599.796 16.744 598.34 15.112 596.212 15.112C593.988 15.112 592.372 16.76 592.372 19.112C592.372 21.496 594.004 23.096 596.308 23.096C597.876 23.096 598.852 22.504 599.524 21.64L598.612 20.872C598.132 21.464 597.396 21.912 596.356 21.912C594.884 21.912 593.86 20.952 593.684 19.496H599.764C599.764 19.4 599.796 19.176 599.796 18.968ZM596.196 16.296C597.476 16.296 598.308 17.16 598.5 18.44H593.716C593.956 17.112 594.948 16.296 596.196 16.296Z" fill="black"/>
<path d="M557.408 11.64V11.44H557.208V11.64H557.408ZM557.408 23H557.208V23.2H557.408V23ZM558.8 23V23.2H559V23H558.8ZM558.8 18.232V18.032H558.6V18.232H558.8ZM564.736 18.232H564.936V18.032H564.736V18.232ZM564.736 23H564.536V23.2H564.736V23ZM566.128 23V23.2H566.328V23H566.128ZM566.128 11.64H566.328V11.44H566.128V11.64ZM564.736 11.64V11.44H564.536V11.64H564.736ZM564.736 16.968V17.168H564.936V16.968H564.736ZM558.8 16.968H558.6V17.168H558.8V16.968ZM558.8 11.64H559V11.44H558.8V11.64ZM557.208 11.64V23H557.608V11.64H557.208ZM557.408 23.2H558.8V22.8H557.408V23.2ZM559 23V18.232H558.6V23H559ZM558.8 18.432H564.736V18.032H558.8V18.432ZM564.536 18.232V23H564.936V18.232H564.536ZM564.736 23.2H566.128V22.8H564.736V23.2ZM566.328 23V11.64H565.928V23H566.328ZM566.128 11.44H564.736V11.84H566.128V11.44ZM564.536 11.64V16.968H564.936V11.64H564.536ZM564.736 16.768H558.8V17.168H564.736V16.768ZM559 16.968V11.64H558.6V16.968H559ZM558.8 11.44H557.408V11.84H558.8V11.44ZM572.443 23.296C574.853 23.296 576.659 21.5947 576.659 19.112H576.259C576.259 21.3653 574.641 22.896 572.443 22.896V23.296ZM576.659 19.112C576.659 16.6304 574.855 14.912 572.443 14.912V15.312C574.64 15.312 576.259 16.8576 576.259 19.112H576.659ZM572.443 14.912C569.913 14.912 568.211 16.7653 568.211 19.112H568.611C568.611 16.9787 570.141 15.312 572.443 15.312V14.912ZM568.211 19.112C568.211 21.4598 569.914 23.296 572.443 23.296V22.896C570.14 22.896 568.611 21.2442 568.611 19.112H568.211ZM572.443 21.712C570.95 21.712 569.939 20.5661 569.939 19.112H569.539C569.539 20.7619 570.705 22.112 572.443 22.112V21.712ZM569.939 19.112C569.939 17.6556 570.936 16.496 572.443 16.496V16.096C570.686 16.096 569.539 17.4644 569.539 19.112H569.939ZM572.443 16.496C573.832 16.496 574.931 17.5538 574.931 19.112H575.331C575.331 17.3422 574.062 16.096 572.443 16.096V16.496ZM574.931 19.112C574.931 20.6679 573.818 21.712 572.443 21.712V22.112C574.044 22.112 575.331 20.8841 575.331 19.112H574.931ZM578.552 15.208V15.008H578.352V15.208H578.552ZM578.552 23H578.352V23.2H578.552V23ZM579.848 23V23.2H580.048V23H579.848ZM583.896 23H583.696V23.2H583.896V23ZM585.192 23V23.2H585.392V23H585.192ZM589.16 23H588.96V23.2H589.16V23ZM590.456 23V23.2H590.656V23H590.456ZM584.904 16.776V16.976H585.021L585.078 16.8738L584.904 16.776ZM584.888 16.776L584.7 16.8459L584.749 16.976H584.888V16.776ZM579.864 16.616V16.816H579.974L580.033 16.7223L579.864 16.616ZM579.848 16.616H579.648V16.816H579.848V16.616ZM579.848 15.208H580.048V15.008H579.848V15.208ZM578.352 15.208V23H578.752V15.208H578.352ZM578.552 23.2H579.848V22.8H578.552V23.2ZM580.048 23V19.128H579.648V23H580.048ZM580.048 19.128C580.048 18.2915 580.278 17.6314 580.643 17.1845C581.005 16.7402 581.509 16.496 582.088 16.496V16.096C581.387 16.096 580.77 16.3958 580.333 16.9315C579.898 17.4646 579.648 18.2205 579.648 19.128H580.048ZM582.088 16.496C582.612 16.496 583 16.6966 583.266 17.0749C583.539 17.4638 583.696 18.0608 583.696 18.872H584.096C584.096 18.0192 583.932 17.3282 583.593 16.8451C583.247 16.3514 582.731 16.096 582.088 16.096V16.496ZM583.696 18.872V23H584.096V18.872H583.696ZM583.896 23.2H585.192V22.8H583.896V23.2ZM585.392 23V19.128H584.992V23H585.392ZM585.392 19.128C585.392 17.4526 586.316 16.496 587.384 16.496V16.096C586.019 16.096 584.992 17.3154 584.992 19.128H585.392ZM587.384 16.496C587.916 16.496 588.295 16.6965 588.55 17.0723C588.814 17.4608 588.96 18.0581 588.96 18.872H589.36C589.36 18.0219 589.209 17.3312 588.881 16.8477C588.544 16.3515 588.035 16.096 587.384 16.096V16.496ZM588.96 18.872V23H589.36V18.872H588.96ZM589.16 23.2H590.456V22.8H589.16V23.2ZM590.656 23V18.52H590.256V23H590.656ZM590.656 18.52C590.656 17.3833 590.411 16.4802 589.916 15.8576C589.416 15.2276 588.681 14.912 587.768 14.912V15.312C588.582 15.312 589.192 15.5884 589.603 16.1064C590.02 16.6318 590.256 17.4327 590.256 18.52H590.656ZM587.768 14.912C586.481 14.912 585.357 15.5578 584.729 16.6782L585.078 16.8738C585.634 15.8822 586.623 15.312 587.768 15.312V14.912ZM584.904 16.576H584.888V16.976H584.904V16.576ZM585.075 16.7061C584.863 16.1372 584.527 15.6858 584.081 15.3775C583.635 15.0691 583.09 14.912 582.472 14.912V15.312C583.021 15.312 583.484 15.4509 583.854 15.7065C584.224 15.9622 584.513 16.3428 584.7 16.8459L585.075 16.7061ZM582.472 14.912C581.358 14.912 580.32 15.5119 579.694 16.5097L580.033 16.7223C580.591 15.8321 581.506 15.312 582.472 15.312V14.912ZM579.864 16.416H579.848V16.816H579.864V16.416ZM580.048 16.616V15.208H579.648V16.616H580.048ZM579.848 15.008H578.552V15.408H579.848V15.008ZM599.524 21.64L599.682 21.7628L599.8 21.6109L599.653 21.487L599.524 21.64ZM598.612 20.872L598.741 20.719L598.585 20.5878L598.457 20.746L598.612 20.872ZM593.684 19.496V19.296H593.458L593.485 19.52L593.684 19.496ZM599.764 19.496V19.696H599.964V19.496H599.764ZM598.5 18.44V18.64H598.732L598.698 18.4103L598.5 18.44ZM593.716 18.44L593.519 18.4044L593.476 18.64H593.716V18.44ZM599.996 18.968C599.996 17.8124 599.617 16.7981 598.949 16.0707C598.28 15.342 597.33 14.912 596.212 14.912V15.312C597.222 15.312 598.064 15.698 598.655 16.3413C599.247 16.9859 599.596 17.8996 599.596 18.968H599.996ZM596.212 14.912C593.871 14.912 592.172 16.6561 592.172 19.112H592.572C592.572 16.8639 594.105 15.312 596.212 15.312V14.912ZM592.172 19.112C592.172 20.3509 592.597 21.3996 593.334 22.1392C594.072 22.8787 595.108 23.296 596.308 23.296V22.896C595.203 22.896 594.272 22.5133 593.618 21.8568C592.963 21.2004 592.572 20.2571 592.572 19.112H592.172ZM596.308 23.296C597.937 23.296 598.972 22.6756 599.682 21.7628L599.366 21.5172C598.732 22.3324 597.814 22.896 596.308 22.896V23.296ZM599.653 21.487L598.741 20.719L598.483 21.025L599.395 21.793L599.653 21.487ZM598.457 20.746C598.011 21.2951 597.331 21.712 596.356 21.712V22.112C597.461 22.112 598.252 21.6329 598.767 20.998L598.457 20.746ZM596.356 21.712C595.665 21.712 595.09 21.4875 594.669 21.1023C594.247 20.7166 593.965 20.1588 593.882 19.472L593.485 19.52C593.578 20.2892 593.897 20.9394 594.399 21.3977C594.901 21.8565 595.575 22.112 596.356 22.112V21.712ZM593.684 19.696H599.764V19.296H593.684V19.696ZM599.964 19.496C599.964 19.4592 599.97 19.3934 599.979 19.291C599.987 19.1962 599.996 19.081 599.996 18.968H599.596C599.596 19.063 599.589 19.1638 599.581 19.257C599.573 19.3426 599.564 19.4368 599.564 19.496H599.964ZM596.196 16.496C596.788 16.496 597.265 16.6946 597.617 17.0323C597.972 17.372 598.211 17.8644 598.302 18.4697L598.698 18.4103C598.596 17.7356 598.324 17.156 597.894 16.7437C597.462 16.3294 596.884 16.096 596.196 16.096V16.496ZM598.5 18.24H593.716V18.64H598.5V18.24ZM593.913 18.4756C594.136 17.2393 595.048 16.496 596.196 16.496V16.096C594.848 16.096 593.776 16.9847 593.519 18.4044L593.913 18.4756Z" fill="black"/>
<path d="M661.528 11.64L665.144 23H666.488L669.16 13.672H669.192L671.816 23H673.16L676.792 11.64H675.32L672.504 20.728H672.472L669.928 11.64H668.408L665.848 20.744H665.816L663.016 11.64H661.528ZM678.688 11.224V23H679.984V19.08C679.984 17.32 680.944 16.296 682.497 16.296C683.633 16.296 684.417 16.936 684.417 18.696V23H685.713V18.328C685.713 16.104 684.561 15.112 682.881 15.112C681.633 15.112 680.609 15.64 680 16.568H679.984V11.224H678.688ZM691.425 23.096C692.689 23.096 693.649 22.52 694.209 21.592H694.225V23H695.473V15.208H694.177V16.584L694.145 16.6C693.585 15.656 692.577 15.112 691.425 15.112C689.217 15.112 687.633 16.856 687.633 19.16C687.633 21.528 689.281 23.096 691.425 23.096ZM691.617 21.912C690.017 21.912 688.945 20.728 688.945 19.16C688.945 17.432 690.145 16.296 691.617 16.296C693.153 16.296 694.225 17.56 694.225 19.16C694.225 20.808 693.057 21.912 691.617 21.912ZM700.154 23.096C701.082 23.096 701.61 22.872 702.042 22.616L701.706 21.48C701.322 21.688 700.842 21.88 700.378 21.88C699.642 21.88 699.434 21.432 699.434 20.488V16.328H702.01V15.208H699.434V12.408L698.138 12.552V15.208H697.13V16.328H698.138V20.68C698.138 22.248 698.778 23.096 700.154 23.096ZM707.734 11.64L711.35 23H712.694L715.366 13.672H715.398L718.022 23H719.366L722.998 11.64H721.526L718.71 20.728H718.678L716.134 11.64H714.614L712.054 20.744H712.022L709.222 11.64H707.734ZM730.854 18.968C730.854 16.744 729.398 15.112 727.27 15.112C725.046 15.112 723.43 16.76 723.43 19.112C723.43 21.496 725.062 23.096 727.366 23.096C728.934 23.096 729.91 22.504 730.582 21.64L729.67 20.872C729.19 21.464 728.454 21.912 727.414 21.912C725.942 21.912 724.918 20.952 724.742 19.496H730.822C730.822 19.4 730.854 19.176 730.854 18.968ZM727.254 16.296C728.534 16.296 729.366 17.16 729.558 18.44H724.774C725.014 17.112 726.006 16.296 727.254 16.296ZM737.625 11.64V23H741.065C744.697 23 746.921 20.68 746.921 17.336C746.921 13.976 744.617 11.64 741.017 11.64H737.625ZM740.985 21.736H739.017V12.904H741.033C743.689 12.904 745.481 14.744 745.481 17.336C745.481 19.896 743.753 21.736 740.985 21.736ZM752.739 23.096C755.043 23.096 756.755 21.48 756.755 19.112C756.755 16.744 755.043 15.112 752.739 15.112C750.323 15.112 748.707 16.872 748.707 19.112C748.707 21.352 750.323 23.096 752.739 23.096ZM752.739 21.912C751.123 21.912 750.035 20.664 750.035 19.112C750.035 17.56 751.107 16.296 752.739 16.296C754.243 16.296 755.427 17.448 755.427 19.112C755.427 20.776 754.227 21.912 752.739 21.912Z" fill="black"/>
<path d="M661.528 11.64V11.44H661.254L661.337 11.7007L661.528 11.64ZM665.144 23L664.953 23.0607L664.998 23.2H665.144V23ZM666.488 23V23.2H666.639L666.68 23.0551L666.488 23ZM669.16 13.672V13.472H669.009L668.968 13.6169L669.16 13.672ZM669.192 13.672L669.385 13.6178L669.344 13.472H669.192V13.672ZM671.816 23L671.623 23.0542L671.664 23.2H671.816V23ZM673.16 23V23.2H673.306L673.351 23.0609L673.16 23ZM676.792 11.64L676.983 11.7009L677.066 11.44H676.792V11.64ZM675.32 11.64V11.44H675.173L675.129 11.5808L675.32 11.64ZM672.504 20.728V20.928H672.651L672.695 20.7872L672.504 20.728ZM672.472 20.728L672.279 20.7819L672.32 20.928H672.472V20.728ZM669.928 11.64L670.121 11.5861L670.08 11.44H669.928V11.64ZM668.408 11.64V11.44H668.256L668.215 11.5859L668.408 11.64ZM665.848 20.744V20.944H666L666.041 20.7981L665.848 20.744ZM665.816 20.744L665.625 20.8028L665.668 20.944H665.816V20.744ZM663.016 11.64L663.207 11.5812L663.164 11.44H663.016V11.64ZM661.337 11.7007L664.953 23.0607L665.335 22.9393L661.719 11.5793L661.337 11.7007ZM665.144 23.2H666.488V22.8H665.144V23.2ZM666.68 23.0551L669.352 13.7271L668.968 13.6169L666.296 22.9449L666.68 23.0551ZM669.16 13.872H669.192V13.472H669.16V13.872ZM668.999 13.7262L671.623 23.0542L672.009 22.9458L669.385 13.6178L668.999 13.7262ZM671.816 23.2H673.16V22.8H671.816V23.2ZM673.351 23.0609L676.983 11.7009L676.602 11.5791L672.97 22.9391L673.351 23.0609ZM676.792 11.44H675.32V11.84H676.792V11.44ZM675.129 11.5808L672.313 20.6688L672.695 20.7872L675.511 11.6992L675.129 11.5808ZM672.504 20.528H672.472V20.928H672.504V20.528ZM672.665 20.6741L670.121 11.5861L669.735 11.6939L672.279 20.7819L672.665 20.6741ZM669.928 11.44H668.408V11.84H669.928V11.44ZM668.215 11.5859L665.655 20.6899L666.041 20.7981L668.601 11.6941L668.215 11.5859ZM665.848 20.544H665.816V20.944H665.848V20.544ZM666.007 20.6852L663.207 11.5812L662.825 11.6988L665.625 20.8028L666.007 20.6852ZM663.016 11.44H661.528V11.84H663.016V11.44ZM678.688 11.224V11.024H678.489V11.224H678.688ZM678.688 23H678.489V23.2H678.688V23ZM679.985 23V23.2H680.184V23H679.985ZM684.417 23H684.216V23.2H684.417V23ZM685.713 23V23.2H685.913V23H685.713ZM680 16.568V16.768H680.109L680.168 16.6776L680 16.568ZM679.985 16.568H679.785V16.768H679.985V16.568ZM679.985 11.224H680.184V11.024H679.985V11.224ZM678.489 11.224V23H678.889V11.224H678.489ZM678.688 23.2H679.985V22.8H678.688V23.2ZM680.184 23V19.08H679.785V23H680.184ZM680.184 19.08C680.184 18.2351 680.415 17.5923 680.806 17.1628C681.196 16.7355 681.766 16.496 682.497 16.496V16.096C681.675 16.096 680.989 16.3685 680.511 16.8932C680.034 17.4157 679.785 18.1649 679.785 19.08H680.184ZM682.497 16.496C683.027 16.496 683.444 16.6444 683.733 16.9689C684.026 17.2979 684.216 17.8415 684.216 18.696H684.617C684.617 17.7905 684.415 17.1341 684.032 16.7031C683.645 16.2676 683.102 16.096 682.497 16.096V16.496ZM684.216 18.696V23H684.617V18.696H684.216ZM684.417 23.2H685.713V22.8H684.417V23.2ZM685.913 23V18.328H685.513V23H685.913ZM685.913 18.328C685.913 17.1832 685.616 16.3231 685.072 15.7485C684.526 15.1725 683.76 14.912 682.881 14.912V15.312C683.681 15.312 684.331 15.5475 684.781 16.0235C685.233 16.5009 685.513 17.2488 685.513 18.328H685.913ZM682.881 14.912C681.573 14.912 680.482 15.4677 679.833 16.4584L680.168 16.6776C680.735 15.8123 681.692 15.312 682.881 15.312V14.912ZM680 16.368H679.985V16.768H680V16.368ZM680.184 16.568V11.224H679.785V16.568H680.184ZM679.985 11.024H678.688V11.424H679.985V11.024ZM694.209 21.592V21.392H694.096L694.038 21.4887L694.209 21.592ZM694.225 21.592H694.425V21.392H694.225V21.592ZM694.225 23H694.025V23.2H694.225V23ZM695.473 23V23.2H695.673V23H695.473ZM695.473 15.208H695.673V15.008H695.473V15.208ZM694.177 15.208V15.008H693.977V15.208H694.177ZM694.177 16.584L694.267 16.7629L694.377 16.7076V16.584H694.177ZM694.145 16.6L693.973 16.702L694.068 16.8621L694.235 16.7789L694.145 16.6ZM691.425 23.296C692.757 23.296 693.783 22.6851 694.381 21.6953L694.038 21.4887C693.515 22.3549 692.621 22.896 691.425 22.896V23.296ZM694.209 21.792H694.225V21.392H694.209V21.792ZM694.025 21.592V23H694.425V21.592H694.025ZM694.225 23.2H695.473V22.8H694.225V23.2ZM695.673 23V15.208H695.273V23H695.673ZM695.473 15.008H694.177V15.408H695.473V15.008ZM693.977 15.208V16.584H694.377V15.208H693.977ZM694.088 16.4051L694.056 16.4211L694.235 16.7789L694.267 16.7629L694.088 16.4051ZM694.317 16.498C693.718 15.4884 692.642 14.912 691.425 14.912V15.312C692.513 15.312 693.452 15.8236 693.973 16.702L694.317 16.498ZM691.425 14.912C689.093 14.912 687.433 16.7598 687.433 19.16H687.833C687.833 16.9522 689.342 15.312 691.425 15.312V14.912ZM687.433 19.16C687.433 21.6362 689.169 23.296 691.425 23.296V22.896C689.394 22.896 687.833 21.4198 687.833 19.16H687.433ZM691.617 21.712C690.137 21.712 689.145 20.6271 689.145 19.16H688.745C688.745 20.8289 689.898 22.112 691.617 22.112V21.712ZM689.145 19.16C689.145 17.5363 690.262 16.496 691.617 16.496V16.096C690.029 16.096 688.745 17.3277 688.745 19.16H689.145ZM691.617 16.496C693.022 16.496 694.025 17.6482 694.025 19.16H694.425C694.425 17.4718 693.285 16.096 691.617 16.096V16.496ZM694.025 19.16C694.025 20.7015 692.943 21.712 691.617 21.712V22.112C693.172 22.112 694.425 20.9145 694.425 19.16H694.025ZM702.042 22.616L702.144 22.7881L702.278 22.7086L702.233 22.5593L702.042 22.616ZM701.706 21.48L701.897 21.4233L701.827 21.1866L701.61 21.3041L701.706 21.48ZM699.434 16.328V16.128H699.234V16.328H699.434ZM702.01 16.328V16.528H702.21V16.328H702.01ZM702.01 15.208H702.21V15.008H702.01V15.208ZM699.434 15.208H699.234V15.408H699.434V15.208ZM699.434 12.408H699.634V12.1845L699.412 12.2092L699.434 12.408ZM698.138 12.552L698.116 12.3532L697.938 12.373V12.552H698.138ZM698.138 15.208V15.408H698.338V15.208H698.138ZM697.13 15.208V15.008H696.93V15.208H697.13ZM697.13 16.328H696.93V16.528H697.13V16.328ZM698.138 16.328H698.338V16.128H698.138V16.328ZM700.154 23.296C701.122 23.296 701.685 23.06 702.144 22.7881L701.94 22.4439C701.535 22.684 701.041 22.896 700.154 22.896V23.296ZM702.233 22.5593L701.897 21.4233L701.514 21.5367L701.85 22.6727L702.233 22.5593ZM701.61 21.3041C701.237 21.5064 700.792 21.68 700.378 21.68V22.08C700.891 22.08 701.406 21.8696 701.801 21.6559L701.61 21.3041ZM700.378 21.68C700.055 21.68 699.895 21.5858 699.799 21.4319C699.688 21.2537 699.634 20.9565 699.634 20.488H699.234C699.234 20.9635 699.284 21.3623 699.46 21.6441C699.652 21.9502 699.965 22.08 700.378 22.08V21.68ZM699.634 20.488V16.328H699.234V20.488H699.634ZM699.434 16.528H702.01V16.128H699.434V16.528ZM702.21 16.328V15.208H701.81V16.328H702.21ZM702.01 15.008H699.434V15.408H702.01V15.008ZM699.634 15.208V12.408H699.234V15.208H699.634ZM699.412 12.2092L698.116 12.3532L698.16 12.7508L699.456 12.6068L699.412 12.2092ZM697.938 12.552V15.208H698.338V12.552H697.938ZM698.138 15.008H697.13V15.408H698.138V15.008ZM696.93 15.208V16.328H697.33V15.208H696.93ZM697.13 16.528H698.138V16.128H697.13V16.528ZM697.938 16.328V20.68H698.338V16.328H697.938ZM697.938 20.68C697.938 21.4861 698.101 22.1436 698.474 22.6022C698.854 23.0687 699.422 23.296 700.154 23.296V22.896C699.509 22.896 699.069 22.6993 698.785 22.3498C698.494 21.9924 698.338 21.4419 698.338 20.68H697.938ZM707.734 11.64V11.44H707.461L707.544 11.7007L707.734 11.64ZM711.35 23L711.16 23.0607L711.204 23.2H711.35V23ZM712.694 23V23.2H712.845L712.887 23.0551L712.694 23ZM715.366 13.672V13.472H715.215L715.174 13.6169L715.366 13.672ZM715.398 13.672L715.591 13.6178L715.55 13.472H715.398V13.672ZM718.022 23L717.83 23.0542L717.871 23.2H718.022V23ZM719.366 23V23.2H719.512L719.557 23.0609L719.366 23ZM722.998 11.64L723.189 11.7009L723.272 11.44H722.998V11.64ZM721.526 11.64V11.44H721.379L721.335 11.5808L721.526 11.64ZM718.71 20.728V20.928H718.858L718.901 20.7872L718.71 20.728ZM718.678 20.728L718.486 20.7819L718.527 20.928H718.678V20.728ZM716.134 11.64L716.327 11.5861L716.286 11.44H716.134V11.64ZM714.614 11.64V11.44H714.463L714.422 11.5859L714.614 11.64ZM712.054 20.744V20.944H712.206L712.247 20.7981L712.054 20.744ZM712.022 20.744L711.831 20.8028L711.875 20.944H712.022V20.744ZM709.222 11.64L709.413 11.5812L709.37 11.44H709.222V11.64ZM707.544 11.7007L711.16 23.0607L711.541 22.9393L707.925 11.5793L707.544 11.7007ZM711.35 23.2H712.694V22.8H711.35V23.2ZM712.887 23.0551L715.559 13.7271L715.174 13.6169L712.502 22.9449L712.887 23.0551ZM715.366 13.872H715.398V13.472H715.366V13.872ZM715.206 13.7262L717.83 23.0542L718.215 22.9458L715.591 13.6178L715.206 13.7262ZM718.022 23.2H719.366V22.8H718.022V23.2ZM719.557 23.0609L723.189 11.7009L722.808 11.5791L719.176 22.9391L719.557 23.0609ZM722.998 11.44H721.526V11.84H722.998V11.44ZM721.335 11.5808L718.519 20.6688L718.901 20.7872L721.717 11.6992L721.335 11.5808ZM718.71 20.528H718.678V20.928H718.71V20.528ZM718.871 20.6741L716.327 11.5861L715.942 11.6939L718.486 20.7819L718.871 20.6741ZM716.134 11.44H714.614V11.84H716.134V11.44ZM714.422 11.5859L711.862 20.6899L712.247 20.7981L714.807 11.6941L714.422 11.5859ZM712.054 20.544H712.022V20.944H712.054V20.544ZM712.213 20.6852L709.413 11.5812L709.031 11.6988L711.831 20.8028L712.213 20.6852ZM709.222 11.44H707.734V11.84H709.222V11.44ZM730.582 21.64L730.74 21.7628L730.858 21.6109L730.711 21.487L730.582 21.64ZM729.67 20.872L729.799 20.719L729.643 20.5878L729.515 20.746L729.67 20.872ZM724.742 19.496V19.296H724.516L724.543 19.52L724.742 19.496ZM730.822 19.496V19.696H731.022V19.496H730.822ZM729.558 18.44V18.64H729.79L729.756 18.4103L729.558 18.44ZM724.774 18.44L724.577 18.4044L724.535 18.64H724.774V18.44ZM731.054 18.968C731.054 17.8124 730.675 16.7981 730.007 16.0707C729.338 15.342 728.388 14.912 727.27 14.912V15.312C728.28 15.312 729.122 15.698 729.713 16.3413C730.305 16.9859 730.654 17.8996 730.654 18.968H731.054ZM727.27 14.912C724.929 14.912 723.23 16.6561 723.23 19.112H723.63C723.63 16.8639 725.163 15.312 727.27 15.312V14.912ZM723.23 19.112C723.23 20.3509 723.655 21.3996 724.392 22.1392C725.13 22.8787 726.167 23.296 727.366 23.296V22.896C726.261 22.896 725.33 22.5133 724.676 21.8568C724.021 21.2004 723.63 20.2571 723.63 19.112H723.23ZM727.366 23.296C728.996 23.296 730.03 22.6756 730.74 21.7628L730.424 21.5172C729.79 22.3324 728.872 22.896 727.366 22.896V23.296ZM730.711 21.487L729.799 20.719L729.541 21.025L730.453 21.793L730.711 21.487ZM729.515 20.746C729.069 21.2951 728.389 21.712 727.414 21.712V22.112C728.519 22.112 729.311 21.6329 729.825 20.998L729.515 20.746ZM727.414 21.712C726.723 21.712 726.149 21.4875 725.727 21.1023C725.305 20.7166 725.024 20.1588 724.941 19.472L724.543 19.52C724.636 20.2892 724.955 20.9394 725.457 21.3977C725.959 21.8565 726.633 22.112 727.414 22.112V21.712ZM724.742 19.696H730.822V19.296H724.742V19.696ZM731.022 19.496C731.022 19.4592 731.029 19.3934 731.037 19.291C731.045 19.1962 731.054 19.081 731.054 18.968H730.654C730.654 19.063 730.647 19.1638 730.639 19.257C730.631 19.3426 730.622 19.4368 730.622 19.496H731.022ZM727.254 16.496C727.846 16.496 728.323 16.6946 728.676 17.0323C729.03 17.372 729.269 17.8644 729.36 18.4697L729.756 18.4103C729.655 17.7356 729.382 17.156 728.952 16.7437C728.521 16.3294 727.942 16.096 727.254 16.096V16.496ZM729.558 18.24H724.774V18.64H729.558V18.24ZM724.971 18.4756C725.194 17.2393 726.106 16.496 727.254 16.496V16.096C725.906 16.096 724.834 16.9847 724.577 18.4044L724.971 18.4756ZM737.625 11.64V11.44H737.425V11.64H737.625ZM737.625 23H737.425V23.2H737.625V23ZM739.018 21.736H738.817V21.936H739.018V21.736ZM739.018 12.904V12.704H738.817V12.904H739.018ZM737.425 11.64V23H737.826V11.64H737.425ZM737.625 23.2H741.065V22.8H737.625V23.2ZM741.065 23.2C742.925 23.2 744.443 22.6053 745.496 21.5643C746.55 20.5233 747.121 19.0532 747.121 17.336H746.721C746.721 18.9628 746.181 20.3247 745.215 21.2797C744.248 22.2347 742.838 22.8 741.065 22.8V23.2ZM747.121 17.336C747.121 15.6091 746.528 14.1312 745.459 13.0851C744.39 12.0391 742.862 11.44 741.018 11.44V11.84C742.773 11.84 744.197 12.4089 745.18 13.3709C746.163 14.3328 746.721 15.7029 746.721 17.336H747.121ZM741.018 11.44H737.625V11.84H741.018V11.44ZM740.985 21.536H739.018V21.936H740.985V21.536ZM739.217 21.736V12.904H738.817V21.736H739.217ZM739.018 13.104H741.034V12.704H739.018V13.104ZM741.034 13.104C742.314 13.104 743.373 13.5466 744.112 14.2891C744.851 15.0317 745.282 16.0871 745.282 17.336H745.682C745.682 15.9929 745.216 14.8323 744.395 14.0069C743.574 13.1814 742.409 12.704 741.034 12.704V13.104ZM745.282 17.336C745.282 18.5702 744.866 19.617 744.13 20.3548C743.394 21.0921 742.324 21.536 740.985 21.536V21.936C742.415 21.936 743.593 21.4599 744.413 20.6372C745.233 19.815 745.682 18.6618 745.682 17.336H745.282ZM752.739 23.296C755.149 23.296 756.955 21.5947 756.955 19.112H756.555C756.555 21.3653 754.937 22.896 752.739 22.896V23.296ZM756.955 19.112C756.955 16.6304 755.15 14.912 752.739 14.912V15.312C754.936 15.312 756.555 16.8576 756.555 19.112H756.955ZM752.739 14.912C750.209 14.912 748.507 16.7653 748.507 19.112H748.907C748.907 16.9787 750.437 15.312 752.739 15.312V14.912ZM748.507 19.112C748.507 21.4598 750.21 23.296 752.739 23.296V22.896C750.436 22.896 748.907 21.2442 748.907 19.112H748.507ZM752.739 21.712C751.245 21.712 750.235 20.5661 750.235 19.112H749.835C749.835 20.7619 751 22.112 752.739 22.112V21.712ZM750.235 19.112C750.235 17.6556 751.232 16.496 752.739 16.496V16.096C750.982 16.096 749.835 17.4644 749.835 19.112H750.235ZM752.739 16.496C754.128 16.496 755.227 17.5538 755.227 19.112H755.627C755.627 17.3422 754.358 16.096 752.739 16.096V16.496ZM755.227 19.112C755.227 20.6679 754.114 21.712 752.739 21.712V22.112C754.34 22.112 755.627 20.8841 755.627 19.112H755.227Z" fill="black"/>
<path d="M822.688 23.096C824.672 23.096 826.496 21.976 826.496 19.896C826.496 17.768 824.88 17.256 822.976 16.504C821.552 15.96 820.528 15.56 820.544 14.472C820.56 13.384 821.504 12.808 822.576 12.808C823.424 12.808 824.4 13.208 825.312 13.96L826.16 12.856C825.088 11.992 823.84 11.528 822.576 11.528C820.624 11.528 819.104 12.84 819.104 14.536C819.104 16.536 820.816 17.256 822.496 17.88C824.016 18.456 825.04 18.792 825.04 20.056C825.04 21.16 824.096 21.8 822.704 21.8C821.6 21.8 820.384 21.288 819.568 20.264L818.672 21.336C819.808 22.552 821.264 23.096 822.688 23.096ZM835.585 18.968C835.585 16.744 834.129 15.112 832.001 15.112C829.777 15.112 828.161 16.76 828.161 19.112C828.161 21.496 829.793 23.096 832.097 23.096C833.665 23.096 834.641 22.504 835.313 21.64L834.401 20.872C833.921 21.464 833.185 21.912 832.145 21.912C830.673 21.912 829.649 20.952 829.473 19.496H835.553C835.553 19.4 835.585 19.176 835.585 18.968ZM831.985 16.296C833.265 16.296 834.097 17.16 834.289 18.44H829.505C829.745 17.112 830.737 16.296 831.985 16.296ZM837.645 15.208V23H838.941V19.24C838.941 17.672 839.821 16.536 841.309 16.536C841.437 16.536 841.629 16.552 841.821 16.568V15.128C841.709 15.112 841.613 15.112 841.501 15.112C840.429 15.112 839.533 15.688 838.973 16.632H838.941V15.208H837.645ZM842.598 15.208L845.766 23H847.014L850.182 15.208H848.79L846.406 21.352H846.39L844.006 15.208H842.598ZM852.67 13.784C853.198 13.784 853.614 13.368 853.614 12.856C853.614 12.344 853.198 11.928 852.67 11.928C852.142 11.928 851.726 12.344 851.726 12.856C851.726 13.368 852.142 13.784 852.67 13.784ZM852.014 15.208V23H853.31V15.208H852.014ZM859.392 23.096C860.912 23.096 861.952 22.52 862.608 21.736L861.712 20.92C861.232 21.512 860.416 21.912 859.488 21.912C857.904 21.912 856.832 20.776 856.832 19.112C856.832 17.464 857.904 16.296 859.504 16.296C860.432 16.296 861.2 16.712 861.696 17.288L862.576 16.504C861.808 15.592 860.608 15.112 859.44 15.112C857.12 15.112 855.504 16.76 855.504 19.112C855.504 21.48 857.12 23.096 859.392 23.096ZM871.432 18.968C871.432 16.744 869.976 15.112 867.848 15.112C865.624 15.112 864.008 16.76 864.008 19.112C864.008 21.496 865.64 23.096 867.944 23.096C869.512 23.096 870.488 22.504 871.16 21.64L870.248 20.872C869.768 21.464 869.032 21.912 867.992 21.912C866.52 21.912 865.496 20.952 865.32 19.496H871.4C871.4 19.4 871.432 19.176 871.432 18.968ZM867.832 16.296C869.112 16.296 869.944 17.16 870.136 18.44H865.352C865.592 17.112 866.584 16.296 867.832 16.296Z" fill="black"/>
<path d="M822.976 16.504L823.049 16.318L823.047 16.3172L822.976 16.504ZM820.544 14.472L820.344 14.4691L820.544 14.472ZM825.312 13.96L825.185 14.1143L825.344 14.246L825.471 14.0818L825.312 13.96ZM826.16 12.856L826.319 12.9778L826.438 12.8229L826.286 12.7003L826.16 12.856ZM822.496 17.88L822.567 17.693L822.566 17.6925L822.496 17.88ZM819.568 20.264L819.724 20.1394L819.572 19.9477L819.415 20.1357L819.568 20.264ZM818.672 21.336L818.519 21.2077L818.405 21.3434L818.526 21.4725L818.672 21.336ZM822.688 23.296C823.715 23.296 824.712 23.0065 825.458 22.4347C826.208 21.859 826.696 21.0017 826.696 19.896H826.296C826.296 20.8703 825.872 21.613 825.214 22.1173C824.552 22.6255 823.645 22.896 822.688 22.896V23.296ZM826.696 19.896C826.696 18.7674 826.261 18.0493 825.571 17.5248C824.901 17.0157 823.987 16.6883 823.049 16.318L822.903 16.69C823.869 17.0717 824.715 17.3763 825.329 17.8432C825.923 18.2947 826.296 18.8966 826.296 19.896H826.696ZM823.047 16.3172C822.327 16.0421 821.742 15.815 821.335 15.5284C820.943 15.2522 820.737 14.9367 820.744 14.4749L820.344 14.4691C820.335 15.0952 820.633 15.5238 821.105 15.8556C821.562 16.177 822.201 16.4219 822.905 16.6908L823.047 16.3172ZM820.744 14.4749C820.751 13.9953 820.96 13.6362 821.284 13.3918C821.614 13.1434 822.073 13.008 822.576 13.008V12.608C822.007 12.608 821.458 12.7606 821.044 13.0722C820.624 13.3878 820.353 13.8607 820.344 14.4691L820.744 14.4749ZM822.576 13.008C823.364 13.008 824.297 13.382 825.185 14.1143L825.439 13.8057C824.503 13.034 823.484 12.608 822.576 12.608V13.008ZM825.471 14.0818L826.319 12.9778L826.001 12.7342L825.153 13.8382L825.471 14.0818ZM826.286 12.7003C825.182 11.8105 823.89 11.328 822.576 11.328V11.728C823.79 11.728 824.994 12.1735 826.034 13.0117L826.286 12.7003ZM822.576 11.328C820.542 11.328 818.904 12.7034 818.904 14.536H819.304C819.304 12.9766 820.706 11.728 822.576 11.728V11.328ZM818.904 14.536C818.904 15.6058 819.367 16.3404 820.045 16.8805C820.712 17.4113 821.59 17.7568 822.426 18.0675L822.566 17.6925C821.722 17.3792 820.904 17.0527 820.295 16.5675C819.697 16.0916 819.304 15.4662 819.304 14.536H818.904ZM822.425 18.067C823.198 18.3598 823.803 18.5779 824.223 18.8735C824.428 19.0178 824.579 19.1749 824.681 19.36C824.782 19.5442 824.84 19.7681 824.84 20.056H825.24C825.24 19.7119 825.17 19.4198 825.032 19.1675C824.894 18.9161 824.694 18.7162 824.453 18.5465C823.981 18.2141 823.314 17.9762 822.567 17.693L822.425 18.067ZM824.84 20.056C824.84 20.5433 824.635 20.9195 824.276 21.1802C823.911 21.4459 823.372 21.6 822.704 21.6V22C823.428 22 824.057 21.8341 824.512 21.5038C824.973 21.1685 825.24 20.6727 825.24 20.056H824.84ZM822.704 21.6C821.658 21.6 820.501 21.1136 819.724 20.1394L819.412 20.3886C820.267 21.4624 821.542 22 822.704 22V21.6ZM819.415 20.1357L818.519 21.2077L818.825 21.4643L819.721 20.3923L819.415 20.1357ZM818.526 21.4725C819.702 22.7314 821.212 23.296 822.688 23.296V22.896C821.316 22.896 819.914 22.3726 818.818 21.1995L818.526 21.4725ZM835.313 21.64L835.471 21.7628L835.589 21.6109L835.442 21.487L835.313 21.64ZM834.401 20.872L834.53 20.719L834.374 20.5878L834.246 20.746L834.401 20.872ZM829.473 19.496V19.296H829.248L829.275 19.52L829.473 19.496ZM835.553 19.496V19.696H835.753V19.496H835.553ZM834.289 18.44V18.64H834.521L834.487 18.4103L834.289 18.44ZM829.505 18.44L829.308 18.4044L829.266 18.64H829.505V18.44ZM835.785 18.968C835.785 17.8124 835.407 16.7981 834.739 16.0707C834.069 15.342 833.119 14.912 832.001 14.912V15.312C833.011 15.312 833.853 15.698 834.444 16.3413C835.036 16.9859 835.385 17.8996 835.385 18.968H835.785ZM832.001 14.912C829.66 14.912 827.961 16.6561 827.961 19.112H828.361C828.361 16.8639 829.894 15.312 832.001 15.312V14.912ZM827.961 19.112C827.961 20.3509 828.386 21.3996 829.124 22.1392C829.861 22.8787 830.898 23.296 832.097 23.296V22.896C830.993 22.896 830.061 22.5133 829.407 21.8568C828.752 21.2004 828.361 20.2571 828.361 19.112H827.961ZM832.097 23.296C833.727 23.296 834.761 22.6756 835.471 21.7628L835.155 21.5172C834.521 22.3324 833.604 22.896 832.097 22.896V23.296ZM835.442 21.487L834.53 20.719L834.272 21.025L835.184 21.793L835.442 21.487ZM834.246 20.746C833.801 21.2951 833.12 21.712 832.145 21.712V22.112C833.25 22.112 834.042 21.6329 834.557 20.998L834.246 20.746ZM832.145 21.712C831.454 21.712 830.88 21.4875 830.458 21.1023C830.036 20.7166 829.755 20.1588 829.672 19.472L829.275 19.52C829.368 20.2892 829.687 20.9394 830.188 21.3977C830.691 21.8565 831.364 22.112 832.145 22.112V21.712ZM829.473 19.696H835.553V19.296H829.473V19.696ZM835.753 19.496C835.753 19.4592 835.76 19.3934 835.769 19.291C835.777 19.1962 835.785 19.081 835.785 18.968H835.385C835.385 19.063 835.378 19.1638 835.37 19.257C835.363 19.3426 835.353 19.4368 835.353 19.496H835.753ZM831.985 16.496C832.577 16.496 833.055 16.6946 833.407 17.0323C833.761 17.372 834.001 17.8644 834.091 18.4697L834.487 18.4103C834.386 17.7356 834.114 17.156 833.684 16.7437C833.252 16.3294 832.673 16.096 831.985 16.096V16.496ZM834.289 18.24H829.505V18.64H834.289V18.24ZM829.702 18.4756C829.925 17.2393 830.837 16.496 831.985 16.496V16.096C830.637 16.096 829.565 16.9847 829.308 18.4044L829.702 18.4756ZM837.645 15.208V15.008H837.445V15.208H837.645ZM837.645 23H837.445V23.2H837.645V23ZM838.941 23V23.2H839.141V23H838.941ZM841.821 16.568L841.805 16.7673L842.021 16.7854V16.568H841.821ZM841.821 15.128H842.021V14.9545L841.85 14.93L841.821 15.128ZM838.973 16.632V16.832H839.087L839.145 16.734L838.973 16.632ZM838.941 16.632H838.741V16.832H838.941V16.632ZM838.941 15.208H839.141V15.008H838.941V15.208ZM837.445 15.208V23H837.845V15.208H837.445ZM837.645 23.2H838.941V22.8H837.645V23.2ZM839.141 23V19.24H838.741V23H839.141ZM839.141 19.24C839.141 18.4919 839.351 17.8652 839.72 17.4292C840.086 16.9968 840.621 16.736 841.309 16.736V16.336C840.51 16.336 839.861 16.6432 839.415 17.1708C838.971 17.6948 838.741 18.4201 838.741 19.24H839.141ZM841.309 16.736C841.427 16.736 841.609 16.751 841.805 16.7673L841.838 16.3687C841.65 16.353 841.448 16.336 841.309 16.336V16.736ZM842.021 16.568V15.128H841.621V16.568H842.021ZM841.85 14.93C841.722 14.9117 841.612 14.912 841.501 14.912V15.312C841.615 15.312 841.697 15.3123 841.793 15.326L841.85 14.93ZM841.501 14.912C840.349 14.912 839.392 15.5338 838.801 16.53L839.145 16.734C839.674 15.8422 840.509 15.312 841.501 15.312V14.912ZM838.973 16.432H838.941V16.832H838.973V16.432ZM839.141 16.632V15.208H838.741V16.632H839.141ZM838.941 15.008H837.645V15.408H838.941V15.008ZM842.598 15.208V15.008H842.301L842.413 15.2833L842.598 15.208ZM845.766 23L845.581 23.0753L845.631 23.2H845.766V23ZM847.014 23V23.2H847.149L847.199 23.0753L847.014 23ZM850.182 15.208L850.367 15.2833L850.479 15.008H850.182V15.208ZM848.79 15.208V15.008H848.653L848.604 15.1357L848.79 15.208ZM846.406 21.352V21.552H846.543L846.592 21.4243L846.406 21.352ZM846.39 21.352L846.204 21.4243L846.253 21.552H846.39V21.352ZM844.006 15.208L844.192 15.1357L844.143 15.008H844.006V15.208ZM842.413 15.2833L845.581 23.0753L845.951 22.9247L842.783 15.1327L842.413 15.2833ZM845.766 23.2H847.014V22.8H845.766V23.2ZM847.199 23.0753L850.367 15.2833L849.997 15.1327L846.829 22.9247L847.199 23.0753ZM850.182 15.008H848.79V15.408H850.182V15.008ZM848.604 15.1357L846.22 21.2797L846.592 21.4243L848.976 15.2803L848.604 15.1357ZM846.406 21.152H846.39V21.552H846.406V21.152ZM846.576 21.2797L844.192 15.1357L843.82 15.2803L846.204 21.4243L846.576 21.2797ZM844.006 15.008H842.598V15.408H844.006V15.008ZM852.014 15.208V15.008H851.814V15.208H852.014ZM852.014 23H851.814V23.2H852.014V23ZM853.311 23V23.2H853.51V23H853.311ZM853.311 15.208H853.51V15.008H853.311V15.208ZM852.67 13.984C853.307 13.984 853.814 13.4807 853.814 12.856H853.415C853.415 13.2553 853.09 13.584 852.67 13.584V13.984ZM853.814 12.856C853.814 12.2313 853.307 11.728 852.67 11.728V12.128C853.09 12.128 853.415 12.4567 853.415 12.856H853.814ZM852.67 11.728C852.034 11.728 851.527 12.2313 851.527 12.856H851.926C851.926 12.4567 852.251 12.128 852.67 12.128V11.728ZM851.527 12.856C851.527 13.4807 852.034 13.984 852.67 13.984V13.584C852.251 13.584 851.926 13.2553 851.926 12.856H851.527ZM851.814 15.208V23H852.215V15.208H851.814ZM852.014 23.2H853.311V22.8H852.014V23.2ZM853.51 23V15.208H853.111V23H853.51ZM853.311 15.008H852.014V15.408H853.311V15.008ZM862.608 21.736L862.762 21.8643L862.885 21.7173L862.743 21.5881L862.608 21.736ZM861.712 20.92L861.847 20.7721L861.69 20.6295L861.557 20.794L861.712 20.92ZM861.696 17.288L861.545 17.4185L861.678 17.5726L861.829 17.4373L861.696 17.288ZM862.576 16.504L862.709 16.6533L862.855 16.5239L862.729 16.3752L862.576 16.504ZM859.392 23.296C860.969 23.296 862.066 22.696 862.762 21.8643L862.455 21.6077C861.839 22.344 860.856 22.896 859.392 22.896V23.296ZM862.743 21.5881L861.847 20.7721L861.578 21.0679L862.474 21.8839L862.743 21.5881ZM861.557 20.794C861.118 21.3357 860.361 21.712 859.488 21.712V22.112C860.472 22.112 861.347 21.6883 861.868 21.046L861.557 20.794ZM859.488 21.712C858.746 21.712 858.136 21.447 857.712 20.9985C857.286 20.549 857.032 19.9007 857.032 19.112H856.632C856.632 19.9873 856.915 20.739 857.421 21.2735C857.928 21.809 858.647 22.112 859.488 22.112V21.712ZM857.032 19.112C857.032 18.3316 857.286 17.6789 857.714 17.223C858.141 16.7682 858.755 16.496 859.504 16.496V16.096C858.653 16.096 857.931 16.4078 857.423 16.949C856.915 17.4891 856.632 18.2444 856.632 19.112H857.032ZM859.504 16.496C860.37 16.496 861.084 16.8835 861.545 17.4185L861.848 17.1575C861.317 16.5405 860.495 16.096 859.504 16.096V16.496ZM861.829 17.4373L862.709 16.6533L862.443 16.3547L861.563 17.1387L861.829 17.4373ZM862.729 16.3752C861.918 15.412 860.659 14.912 859.44 14.912V15.312C860.558 15.312 861.699 15.772 862.423 16.6328L862.729 16.3752ZM859.44 14.912C858.232 14.912 857.195 15.3423 856.46 16.0898C855.725 16.8371 855.304 17.8892 855.304 19.112H855.704C855.704 17.9828 856.092 17.0349 856.745 16.3702C857.398 15.7057 858.329 15.312 859.44 15.312V14.912ZM855.304 19.112C855.304 20.3425 855.725 21.3908 856.454 22.1322C857.183 22.8738 858.208 23.296 859.392 23.296V22.896C858.305 22.896 857.386 22.5102 856.739 21.8518C856.092 21.1932 855.704 20.2495 855.704 19.112H855.304ZM871.16 21.64L871.318 21.7628L871.436 21.6109L871.289 21.487L871.16 21.64ZM870.248 20.872L870.377 20.719L870.221 20.5878L870.093 20.746L870.248 20.872ZM865.32 19.496V19.296H865.094L865.122 19.52L865.32 19.496ZM871.4 19.496V19.696H871.6V19.496H871.4ZM870.136 18.44V18.64H870.368L870.334 18.4103L870.136 18.44ZM865.352 18.44L865.155 18.4044L865.113 18.64H865.352V18.44ZM871.632 18.968C871.632 17.8124 871.253 16.7981 870.585 16.0707C869.916 15.342 868.966 14.912 867.848 14.912V15.312C868.858 15.312 869.7 15.698 870.291 16.3413C870.883 16.9859 871.232 17.8996 871.232 18.968H871.632ZM867.848 14.912C865.507 14.912 863.808 16.6561 863.808 19.112H864.208C864.208 16.8639 865.741 15.312 867.848 15.312V14.912ZM863.808 19.112C863.808 20.3509 864.233 21.3996 864.971 22.1392C865.708 22.8787 866.745 23.296 867.944 23.296V22.896C866.84 22.896 865.908 22.5133 865.254 21.8568C864.599 21.2004 864.208 20.2571 864.208 19.112H863.808ZM867.944 23.296C869.574 23.296 870.608 22.6756 871.318 21.7628L871.002 21.5172C870.368 22.3324 869.451 22.896 867.944 22.896V23.296ZM871.289 21.487L870.377 20.719L870.119 21.025L871.031 21.793L871.289 21.487ZM870.093 20.746C869.648 21.2951 868.967 21.712 867.992 21.712V22.112C869.097 22.112 869.889 21.6329 870.403 20.998L870.093 20.746ZM867.992 21.712C867.301 21.712 866.727 21.4875 866.305 21.1023C865.883 20.7166 865.602 20.1588 865.519 19.472L865.122 19.52C865.215 20.2892 865.533 20.9394 866.035 21.3977C866.538 21.8565 867.211 22.112 867.992 22.112V21.712ZM865.32 19.696H871.4V19.296H865.32V19.696ZM871.6 19.496C871.6 19.4592 871.607 19.3934 871.615 19.291C871.623 19.1962 871.632 19.081 871.632 18.968H871.232C871.232 19.063 871.225 19.1638 871.217 19.257C871.21 19.3426 871.2 19.4368 871.2 19.496H871.6ZM867.832 16.496C868.424 16.496 868.902 16.6946 869.254 17.0323C869.608 17.372 869.848 17.8644 869.938 18.4697L870.334 18.4103C870.233 17.7356 869.96 17.156 869.531 16.7437C869.099 16.3294 868.52 16.096 867.832 16.096V16.496ZM870.136 18.24H865.352V18.64H870.136V18.24ZM865.549 18.4756C865.772 17.2393 866.684 16.496 867.832 16.496V16.096C866.484 16.096 865.412 16.9847 865.155 18.4044L865.549 18.4756Z" fill="black"/>
<path d="M934.408 11.64V23H935.8V18.664H938.136C940.504 18.664 942.136 17.56 942.136 15.16C942.136 13.144 941.032 11.64 938.376 11.64H934.408ZM938.008 17.4H935.8V12.904H938.232C939.752 12.904 940.696 13.672 940.696 15.128C940.696 16.44 939.896 17.4 938.008 17.4ZM944.188 15.208V23H945.484V19.24C945.484 17.672 946.365 16.536 947.852 16.536C947.981 16.536 948.173 16.552 948.365 16.568V15.128C948.253 15.112 948.156 15.112 948.044 15.112C946.972 15.112 946.076 15.688 945.516 16.632H945.484V15.208H944.188ZM953.275 23.096C955.579 23.096 957.291 21.48 957.291 19.112C957.291 16.744 955.579 15.112 953.275 15.112C950.859 15.112 949.243 16.872 949.243 19.112C949.243 21.352 950.859 23.096 953.275 23.096ZM953.275 21.912C951.659 21.912 950.571 20.664 950.571 19.112C950.571 17.56 951.643 16.296 953.275 16.296C954.779 16.296 955.963 17.448 955.963 19.112C955.963 20.776 954.763 21.912 953.275 21.912ZM959.991 13.784C960.519 13.784 960.935 13.368 960.935 12.856C960.935 12.344 960.519 11.928 959.991 11.928C959.463 11.928 959.047 12.344 959.047 12.856C959.047 13.368 959.463 13.784 959.991 13.784ZM958.679 26.264C959.911 26.264 960.647 25.336 960.647 23.816V15.208H959.351V23.816C959.351 24.712 958.999 25.096 958.423 25.096C958.167 25.096 957.799 25.016 957.543 24.856L957.335 26.008C957.831 26.216 958.215 26.264 958.679 26.264ZM970.05 18.968C970.05 16.744 968.594 15.112 966.466 15.112C964.242 15.112 962.626 16.76 962.626 19.112C962.626 21.496 964.258 23.096 966.562 23.096C968.13 23.096 969.106 22.504 969.778 21.64L968.866 20.872C968.386 21.464 967.65 21.912 966.61 21.912C965.138 21.912 964.114 20.952 963.938 19.496H970.018C970.018 19.4 970.05 19.176 970.05 18.968ZM966.45 16.296C967.73 16.296 968.562 17.16 968.754 18.44H963.97C964.21 17.112 965.202 16.296 966.45 16.296ZM975.502 23.096C977.022 23.096 978.062 22.52 978.718 21.736L977.822 20.92C977.342 21.512 976.526 21.912 975.598 21.912C974.014 21.912 972.942 20.776 972.942 19.112C972.942 17.464 974.014 16.296 975.614 16.296C976.542 16.296 977.31 16.712 977.806 17.288L978.686 16.504C977.918 15.592 976.718 15.112 975.55 15.112C973.23 15.112 971.614 16.76 971.614 19.112C971.614 21.48 973.23 23.096 975.502 23.096ZM982.805 23.096C983.733 23.096 984.261 22.872 984.693 22.616L984.357 21.48C983.973 21.688 983.493 21.88 983.029 21.88C982.293 21.88 982.085 21.432 982.085 20.488V16.328H984.661V15.208H982.085V12.408L980.789 12.552V15.208H979.781V16.328H980.789V20.68C980.789 22.248 981.429 23.096 982.805 23.096Z" fill="black"/>
<path d="M934.408 11.64V11.44H934.208V11.64H934.408ZM934.408 23H934.208V23.2H934.408V23ZM935.8 23V23.2H936V23H935.8ZM935.8 18.664V18.464H935.6V18.664H935.8ZM935.8 17.4H935.6V17.6H935.8V17.4ZM935.8 12.904V12.704H935.6V12.904H935.8ZM934.208 11.64V23H934.608V11.64H934.208ZM934.408 23.2H935.8V22.8H934.408V23.2ZM936 23V18.664H935.6V23H936ZM935.8 18.864H938.136V18.464H935.8V18.864ZM938.136 18.864C939.348 18.864 940.399 18.5819 941.151 17.9668C941.909 17.3464 942.336 16.409 942.336 15.16H941.936C941.936 16.311 941.547 17.1256 940.897 17.6572C940.241 18.1941 939.292 18.464 938.136 18.464V18.864ZM942.336 15.16C942.336 14.1171 942.05 13.1809 941.396 12.5049C940.74 11.8275 939.742 11.44 938.376 11.44V11.84C939.666 11.84 940.548 12.2045 941.108 12.7831C941.67 13.3631 941.936 14.1869 941.936 15.16H942.336ZM938.376 11.44H934.408V11.84H938.376V11.44ZM938.008 17.2H935.8V17.6H938.008V17.2ZM936 17.4V12.904H935.6V17.4H936ZM935.8 13.104H938.232V12.704H935.8V13.104ZM938.232 13.104C938.961 13.104 939.524 13.2881 939.902 13.6203C940.276 13.949 940.496 14.4454 940.496 15.128H940.896C940.896 14.3546 940.644 13.739 940.166 13.3197C939.692 12.9039 939.023 12.704 938.232 12.704V13.104ZM940.496 15.128C940.496 15.743 940.31 16.2521 939.924 16.6093C939.537 16.9683 938.92 17.2 938.008 17.2V17.6C938.984 17.6 939.711 17.3517 940.196 16.9027C940.682 16.4519 940.896 15.825 940.896 15.128H940.496ZM944.188 15.208V15.008H943.988V15.208H944.188ZM944.188 23H943.988V23.2H944.188V23ZM945.484 23V23.2H945.684V23H945.484ZM948.365 16.568L948.348 16.7673L948.564 16.7854V16.568H948.365ZM948.365 15.128H948.564V14.9545L948.393 14.93L948.365 15.128ZM945.517 16.632V16.832H945.63L945.689 16.734L945.517 16.632ZM945.484 16.632H945.285V16.832H945.484V16.632ZM945.484 15.208H945.684V15.008H945.484V15.208ZM943.988 15.208V23H944.389V15.208H943.988ZM944.188 23.2H945.484V22.8H944.188V23.2ZM945.684 23V19.24H945.285V23H945.684ZM945.684 19.24C945.684 18.4919 945.894 17.8652 946.263 17.4292C946.629 16.9968 947.164 16.736 947.852 16.736V16.336C947.053 16.336 946.404 16.6432 945.958 17.1708C945.515 17.6948 945.285 18.4201 945.285 19.24H945.684ZM947.852 16.736C947.97 16.736 948.152 16.751 948.348 16.7673L948.381 16.3687C948.193 16.353 947.991 16.336 947.852 16.336V16.736ZM948.564 16.568V15.128H948.165V16.568H948.564ZM948.393 14.93C948.265 14.9117 948.155 14.912 948.045 14.912V15.312C948.158 15.312 948.24 15.3123 948.336 15.326L948.393 14.93ZM948.045 14.912C946.892 14.912 945.935 15.5338 945.344 16.53L945.689 16.734C946.218 15.8422 947.053 15.312 948.045 15.312V14.912ZM945.517 16.432H945.484V16.832H945.517V16.432ZM945.684 16.632V15.208H945.285V16.632H945.684ZM945.484 15.008H944.188V15.408H945.484V15.008ZM953.275 23.296C955.685 23.296 957.491 21.5947 957.491 19.112H957.091C957.091 21.3653 955.473 22.896 953.275 22.896V23.296ZM957.491 19.112C957.491 16.6304 955.686 14.912 953.275 14.912V15.312C955.472 15.312 957.091 16.8576 957.091 19.112H957.491ZM953.275 14.912C950.745 14.912 949.043 16.7653 949.043 19.112H949.443C949.443 16.9787 950.973 15.312 953.275 15.312V14.912ZM949.043 19.112C949.043 21.4598 950.746 23.296 953.275 23.296V22.896C950.972 22.896 949.443 21.2442 949.443 19.112H949.043ZM953.275 21.712C951.782 21.712 950.771 20.5661 950.771 19.112H950.371C950.371 20.7619 951.537 22.112 953.275 22.112V21.712ZM950.771 19.112C950.771 17.6556 951.768 16.496 953.275 16.496V16.096C951.518 16.096 950.371 17.4644 950.371 19.112H950.771ZM953.275 16.496C954.664 16.496 955.763 17.5538 955.763 19.112H956.163C956.163 17.3422 954.894 16.096 953.275 16.096V16.496ZM955.763 19.112C955.763 20.6679 954.65 21.712 953.275 21.712V22.112C954.876 22.112 956.163 20.8841 956.163 19.112H955.763ZM960.647 15.208H960.847V15.008H960.647V15.208ZM959.351 15.208V15.008H959.151V15.208H959.351ZM957.543 24.856L957.649 24.6864L957.399 24.5299L957.347 24.8205L957.543 24.856ZM957.335 26.008L957.139 25.9725L957.11 26.1304L957.258 26.1924L957.335 26.008ZM959.991 13.984C960.628 13.984 961.135 13.4807 961.135 12.856H960.736C960.736 13.2553 960.411 13.584 959.991 13.584V13.984ZM961.135 12.856C961.135 12.2313 960.628 11.728 959.991 11.728V12.128C960.411 12.128 960.736 12.4567 960.736 12.856H961.135ZM959.991 11.728C959.355 11.728 958.847 12.2313 958.847 12.856H959.247C959.247 12.4567 959.572 12.128 959.991 12.128V11.728ZM958.847 12.856C958.847 13.4807 959.355 13.984 959.991 13.984V13.584C959.572 13.584 959.247 13.2553 959.247 12.856H958.847ZM958.679 26.464C959.351 26.464 959.902 26.2087 960.282 25.735C960.657 25.2669 960.847 24.6056 960.847 23.816H960.448C960.448 24.5464 960.27 25.1091 959.969 25.485C959.673 25.8553 959.24 26.064 958.679 26.064V26.464ZM960.847 23.816V15.208H960.448V23.816H960.847ZM960.647 15.008H959.351V15.408H960.647V15.008ZM959.151 15.208V23.816H959.552V15.208H959.151ZM959.151 23.816C959.151 24.243 959.067 24.5118 958.945 24.6701C958.83 24.8189 958.663 24.896 958.424 24.896V25.296C958.76 25.296 959.057 25.1811 959.262 24.9139C959.46 24.6562 959.552 24.285 959.552 23.816H959.151ZM958.424 24.896C958.197 24.896 957.867 24.8226 957.649 24.6864L957.438 25.0256C957.732 25.2094 958.138 25.296 958.424 25.296V24.896ZM957.347 24.8205L957.139 25.9725L957.532 26.0435L957.74 24.8915L957.347 24.8205ZM957.258 26.1924C957.784 26.4131 958.196 26.464 958.679 26.464V26.064C958.235 26.064 957.879 26.0189 957.413 25.8236L957.258 26.1924ZM969.778 21.64L969.935 21.7628L970.054 21.6109L969.906 21.487L969.778 21.64ZM968.866 20.872L968.994 20.719L968.839 20.5878L968.71 20.746L968.866 20.872ZM963.938 19.496V19.296H963.712L963.739 19.52L963.938 19.496ZM970.018 19.496V19.696H970.218V19.496H970.018ZM968.754 18.44V18.64H968.986L968.951 18.4103L968.754 18.44ZM963.97 18.44L963.773 18.4044L963.73 18.64H963.97V18.44ZM970.25 18.968C970.25 17.8124 969.871 16.7981 969.203 16.0707C968.534 15.342 967.584 14.912 966.466 14.912V15.312C967.476 15.312 968.318 15.698 968.908 16.3413C969.5 16.9859 969.85 17.8996 969.85 18.968H970.25ZM966.466 14.912C964.125 14.912 962.426 16.6561 962.426 19.112H962.826C962.826 16.8639 964.359 15.312 966.466 15.312V14.912ZM962.426 19.112C962.426 20.3509 962.851 21.3996 963.588 22.1392C964.325 22.8787 965.362 23.296 966.562 23.296V22.896C965.457 22.896 964.526 22.5133 963.871 21.8568C963.217 21.2004 962.826 20.2571 962.826 19.112H962.426ZM966.562 23.296C968.191 23.296 969.226 22.6756 969.935 21.7628L969.62 21.5172C968.986 22.3324 968.068 22.896 966.562 22.896V23.296ZM969.906 21.487L968.994 20.719L968.737 21.025L969.649 21.793L969.906 21.487ZM968.71 20.746C968.265 21.2951 967.584 21.712 966.61 21.712V22.112C967.715 22.112 968.506 21.6329 969.021 20.998L968.71 20.746ZM966.61 21.712C965.919 21.712 965.344 21.4875 964.923 21.1023C964.5 20.7166 964.219 20.1588 964.136 19.472L963.739 19.52C963.832 20.2892 964.151 20.9394 964.653 21.3977C965.155 21.8565 965.829 22.112 966.61 22.112V21.712ZM963.938 19.696H970.018V19.296H963.938V19.696ZM970.218 19.496C970.218 19.4592 970.224 19.3934 970.233 19.291C970.241 19.1962 970.25 19.081 970.25 18.968H969.85C969.85 19.063 969.842 19.1638 969.834 19.257C969.827 19.3426 969.818 19.4368 969.818 19.496H970.218ZM966.45 16.496C967.042 16.496 967.519 16.6946 967.871 17.0323C968.225 17.372 968.465 17.8644 968.556 18.4697L968.951 18.4103C968.85 17.7356 968.578 17.156 968.148 16.7437C967.716 16.3294 967.137 16.096 966.45 16.096V16.496ZM968.754 18.24H963.97V18.64H968.754V18.24ZM964.166 18.4756C964.39 17.2393 965.302 16.496 966.45 16.496V16.096C965.101 16.096 964.029 16.9847 963.773 18.4044L964.166 18.4756ZM978.718 21.736L978.871 21.8643L978.994 21.7173L978.852 21.5881L978.718 21.736ZM977.822 20.92L977.956 20.7721L977.8 20.6295L977.666 20.794L977.822 20.92ZM977.806 17.288L977.654 17.4185L977.787 17.5726L977.939 17.4373L977.806 17.288ZM978.686 16.504L978.819 16.6533L978.964 16.5239L978.839 16.3752L978.686 16.504ZM975.502 23.296C977.078 23.296 978.175 22.696 978.871 21.8643L978.564 21.6077C977.948 22.344 976.966 22.896 975.502 22.896V23.296ZM978.852 21.5881L977.956 20.7721L977.687 21.0679L978.583 21.8839L978.852 21.5881ZM977.666 20.794C977.227 21.3357 976.47 21.712 975.598 21.712V22.112C976.581 22.112 977.456 21.6883 977.977 21.046L977.666 20.794ZM975.598 21.712C974.856 21.712 974.246 21.447 973.821 20.9985C973.395 20.549 973.142 19.9007 973.142 19.112H972.742C972.742 19.9873 973.024 20.739 973.531 21.2735C974.038 21.809 974.756 22.112 975.598 22.112V21.712ZM973.142 19.112C973.142 18.3316 973.395 17.6789 973.823 17.223C974.251 16.7682 974.865 16.496 975.614 16.496V16.096C974.763 16.096 974.041 16.4078 973.532 16.949C973.024 17.4891 972.742 18.2444 972.742 19.112H973.142ZM975.614 16.496C976.479 16.496 977.193 16.8835 977.654 17.4185L977.957 17.1575C977.426 16.5405 976.604 16.096 975.614 16.096V16.496ZM977.939 17.4373L978.819 16.6533L978.553 16.3547L977.673 17.1387L977.939 17.4373ZM978.839 16.3752C978.028 15.412 976.768 14.912 975.55 14.912V15.312C976.667 15.312 977.808 15.772 978.533 16.6328L978.839 16.3752ZM975.55 14.912C974.341 14.912 973.304 15.3423 972.569 16.0898C971.835 16.8371 971.414 17.8892 971.414 19.112H971.814C971.814 17.9828 972.201 17.0349 972.854 16.3702C973.508 15.7057 974.439 15.312 975.55 15.312V14.912ZM971.414 19.112C971.414 20.3425 971.834 21.3908 972.563 22.1322C973.292 22.8738 974.317 23.296 975.502 23.296V22.896C974.415 22.896 973.496 22.5102 972.848 21.8518C972.201 21.1932 971.814 20.2495 971.814 19.112H971.414ZM984.694 22.616L984.795 22.7881L984.929 22.7086L984.885 22.5593L984.694 22.616ZM984.357 21.48L984.549 21.4233L984.479 21.1866L984.262 21.3041L984.357 21.48ZM982.085 16.328V16.128H981.885V16.328H982.085ZM984.661 16.328V16.528H984.861V16.328H984.661ZM984.661 15.208H984.861V15.008H984.661V15.208ZM982.085 15.208H981.885V15.408H982.085V15.208ZM982.085 12.408H982.285V12.1845L982.063 12.2092L982.085 12.408ZM980.789 12.552L980.767 12.3532L980.59 12.373V12.552H980.789ZM980.789 15.208V15.408H980.989V15.208H980.789ZM979.781 15.208V15.008H979.581V15.208H979.781ZM979.781 16.328H979.581V16.528H979.781V16.328ZM980.789 16.328H980.989V16.128H980.789V16.328ZM982.806 23.296C983.774 23.296 984.337 23.06 984.795 22.7881L984.592 22.4439C984.186 22.684 983.693 22.896 982.806 22.896V23.296ZM984.885 22.5593L984.549 21.4233L984.166 21.5367L984.502 22.6727L984.885 22.5593ZM984.262 21.3041C983.889 21.5064 983.444 21.68 983.029 21.68V22.08C983.543 22.08 984.058 21.8696 984.453 21.6559L984.262 21.3041ZM983.029 21.68C982.707 21.68 982.547 21.5858 982.451 21.4319C982.339 21.2537 982.285 20.9565 982.285 20.488H981.885C981.885 20.9635 981.936 21.3623 982.112 21.6441C982.304 21.9502 982.616 22.08 983.029 22.08V21.68ZM982.285 20.488V16.328H981.885V20.488H982.285ZM982.085 16.528H984.661V16.128H982.085V16.528ZM984.861 16.328V15.208H984.461V16.328H984.861ZM984.661 15.008H982.085V15.408H984.661V15.008ZM982.285 15.208V12.408H981.885V15.208H982.285ZM982.063 12.2092L980.767 12.3532L980.812 12.7508L982.108 12.6068L982.063 12.2092ZM980.59 12.552V15.208H980.989V12.552H980.59ZM980.789 15.008H979.781V15.408H980.789V15.008ZM979.581 15.208V16.328H979.981V15.208H979.581ZM979.781 16.528H980.789V16.128H979.781V16.528ZM980.59 16.328V20.68H980.989V16.328H980.59ZM980.59 20.68C980.59 21.4861 980.753 22.1436 981.126 22.6022C981.506 23.0687 982.074 23.296 982.806 23.296V22.896C982.161 22.896 981.721 22.6993 981.437 22.3498C981.146 21.9924 980.989 21.4419 980.989 20.68H980.59Z" fill="black"/>
<path d="M1047.41 11.64V23H1051.55C1054.13 23 1055.34 21.72 1055.34 19.912C1055.34 18.264 1054.3 17.304 1052.98 17.032V17C1054.21 16.568 1054.78 15.512 1054.78 14.408C1054.78 12.472 1053.33 11.64 1051.12 11.64H1047.41ZM1051.14 16.536H1048.8V12.904L1050.98 12.888C1052.64 12.888 1053.36 13.592 1053.36 14.68C1053.36 16.056 1052.3 16.536 1051.14 16.536ZM1051.42 21.736H1048.8V17.752H1051.22C1052.98 17.752 1053.89 18.52 1053.89 19.8C1053.89 21.112 1052.91 21.736 1051.42 21.736ZM1057.63 11.224V23H1058.92V11.224H1057.63ZM1065.15 23.096C1067.45 23.096 1069.17 21.48 1069.17 19.112C1069.17 16.744 1067.45 15.112 1065.15 15.112C1062.73 15.112 1061.12 16.872 1061.12 19.112C1061.12 21.352 1062.73 23.096 1065.15 23.096ZM1065.15 21.912C1063.53 21.912 1062.45 20.664 1062.45 19.112C1062.45 17.56 1063.52 16.296 1065.15 16.296C1066.65 16.296 1067.84 17.448 1067.84 19.112C1067.84 20.776 1066.64 21.912 1065.15 21.912ZM1074.7 26.264C1077.42 26.264 1078.54 24.664 1078.54 22.424V15.208H1077.24V16.456H1077.21C1076.59 15.608 1075.58 15.112 1074.47 15.112C1072.28 15.112 1070.75 16.776 1070.75 19C1070.75 21.32 1072.39 22.856 1074.52 22.856C1075.72 22.856 1076.65 22.328 1077.23 21.496H1077.26V22.744C1077.26 24.056 1076.41 25.08 1074.65 25.08C1073.53 25.08 1072.75 24.776 1071.85 24.264L1071.53 25.416C1072.46 25.976 1073.53 26.264 1074.7 26.264ZM1074.68 21.656C1073.21 21.656 1072.06 20.616 1072.06 18.968C1072.06 17.448 1073.11 16.312 1074.7 16.312C1076.15 16.312 1077.29 17.368 1077.29 18.936C1077.29 20.488 1076.25 21.656 1074.68 21.656Z" fill="black"/>
<path d="M1047.41 11.64V11.44H1047.21V11.64H1047.41ZM1047.41 23H1047.21V23.2H1047.41V23ZM1052.98 17.032H1052.78V17.1952L1052.94 17.2279L1052.98 17.032ZM1052.98 17L1052.91 16.8113L1052.78 16.8582V17H1052.98ZM1048.8 16.536H1048.6V16.736H1048.8V16.536ZM1048.8 12.904L1048.8 12.704L1048.6 12.7055V12.904H1048.8ZM1050.98 12.888V12.688L1050.97 12.688L1050.98 12.888ZM1048.8 21.736H1048.6V21.936H1048.8V21.736ZM1048.8 17.752V17.552H1048.6V17.752H1048.8ZM1047.21 11.64V23H1047.61V11.64H1047.21ZM1047.41 23.2H1051.55V22.8H1047.41V23.2ZM1051.55 23.2C1052.87 23.2 1053.87 22.8723 1054.55 22.2847C1055.22 21.6941 1055.54 20.8629 1055.54 19.912H1055.14C1055.14 20.7691 1054.86 21.4819 1054.28 21.9833C1053.7 22.4877 1052.81 22.8 1051.55 22.8V23.2ZM1055.54 19.912C1055.54 19.0434 1055.27 18.343 1054.81 17.8232C1054.35 17.3055 1053.71 16.9792 1053.02 16.8361L1052.94 17.2279C1053.57 17.3568 1054.12 17.6465 1054.51 18.0888C1054.9 18.529 1055.14 19.1326 1055.14 19.912H1055.54ZM1053.18 17.032V17H1052.78V17.032H1053.18ZM1053.04 17.1887C1054.37 16.7246 1054.98 15.5842 1054.98 14.408H1054.58C1054.58 15.4398 1054.05 16.4114 1052.91 16.8113L1053.04 17.1887ZM1054.98 14.408C1054.98 13.3825 1054.59 12.626 1053.9 12.1344C1053.21 11.6509 1052.24 11.44 1051.12 11.44V11.84C1052.2 11.84 1053.07 12.0451 1053.66 12.4616C1054.25 12.87 1054.58 13.4975 1054.58 14.408H1054.98ZM1051.12 11.44H1047.41V11.84H1051.12V11.44ZM1051.14 16.336H1048.8V16.736H1051.14V16.336ZM1049 16.536V12.904H1048.6V16.536H1049ZM1048.8 13.104L1050.98 13.088L1050.97 12.688L1048.8 12.704L1048.8 13.104ZM1050.98 13.088C1051.78 13.088 1052.33 13.2596 1052.67 13.5319C1053 13.7982 1053.16 14.1832 1053.16 14.68H1053.56C1053.56 14.0888 1053.36 13.5778 1052.92 13.2201C1052.48 12.8684 1051.83 12.688 1050.98 12.688V13.088ZM1053.16 14.68C1053.16 15.3091 1052.92 15.7099 1052.57 15.9611C1052.21 16.2199 1051.7 16.336 1051.14 16.336V16.736C1051.74 16.736 1052.35 16.6121 1052.8 16.2869C1053.27 15.9541 1053.56 15.4269 1053.56 14.68H1053.16ZM1051.42 21.536H1048.8V21.936H1051.42V21.536ZM1049 21.736V17.752H1048.6V21.736H1049ZM1048.8 17.952H1051.22V17.552H1048.8V17.952ZM1051.22 17.952C1052.07 17.952 1052.69 18.139 1053.09 18.4533C1053.48 18.7619 1053.69 19.2119 1053.69 19.8H1054.09C1054.09 19.1081 1053.84 18.5341 1053.34 18.1387C1052.84 17.749 1052.12 17.552 1051.22 17.552V17.952ZM1053.69 19.8C1053.69 20.4002 1053.47 20.8215 1053.09 21.0996C1052.71 21.3843 1052.14 21.536 1051.42 21.536V21.936C1052.19 21.936 1052.86 21.7757 1053.33 21.4204C1053.82 21.0585 1054.09 20.5118 1054.09 19.8H1053.69ZM1057.63 11.224V11.024H1057.43V11.224H1057.63ZM1057.63 23H1057.43V23.2H1057.63V23ZM1058.92 23V23.2H1059.12V23H1058.92ZM1058.92 11.224H1059.12V11.024H1058.92V11.224ZM1057.43 11.224V23H1057.83V11.224H1057.43ZM1057.63 23.2H1058.92V22.8H1057.63V23.2ZM1059.12 23V11.224H1058.72V23H1059.12ZM1058.92 11.024H1057.63V11.424H1058.92V11.024ZM1065.15 23.296C1067.56 23.296 1069.37 21.5947 1069.37 19.112H1068.97C1068.97 21.3653 1067.35 22.896 1065.15 22.896V23.296ZM1069.37 19.112C1069.37 16.6304 1067.56 14.912 1065.15 14.912V15.312C1067.35 15.312 1068.97 16.8576 1068.97 19.112H1069.37ZM1065.15 14.912C1062.62 14.912 1060.92 16.7653 1060.92 19.112H1061.32C1061.32 16.9787 1062.85 15.312 1065.15 15.312V14.912ZM1060.92 19.112C1060.92 21.4598 1062.62 23.296 1065.15 23.296V22.896C1062.85 22.896 1061.32 21.2442 1061.32 19.112H1060.92ZM1065.15 21.712C1063.66 21.712 1062.65 20.5661 1062.65 19.112H1062.25C1062.25 20.7619 1063.41 22.112 1065.15 22.112V21.712ZM1062.65 19.112C1062.65 17.6556 1063.64 16.496 1065.15 16.496V16.096C1063.39 16.096 1062.25 17.4644 1062.25 19.112H1062.65ZM1065.15 16.496C1066.54 16.496 1067.64 17.5538 1067.64 19.112H1068.04C1068.04 17.3422 1066.77 16.096 1065.15 16.096V16.496ZM1067.64 19.112C1067.64 20.6679 1066.53 21.712 1065.15 21.712V22.112C1066.75 22.112 1068.04 20.8841 1068.04 19.112H1067.64ZM1078.54 15.208H1078.74V15.008H1078.54V15.208ZM1077.24 15.208V15.008H1077.04V15.208H1077.24ZM1077.24 16.456V16.656H1077.44V16.456H1077.24ZM1077.21 16.456L1077.05 16.5745L1077.11 16.656H1077.21V16.456ZM1077.23 21.496V21.296H1077.12L1077.06 21.3822L1077.23 21.496ZM1077.26 21.496H1077.46V21.296H1077.26V21.496ZM1071.85 24.264L1071.95 24.0904L1071.73 23.9628L1071.66 24.2105L1071.85 24.264ZM1071.53 25.416L1071.34 25.3625L1071.3 25.5088L1071.43 25.5872L1071.53 25.416ZM1074.7 26.464C1076.1 26.464 1077.12 26.0511 1077.79 25.3188C1078.45 24.5898 1078.74 23.5746 1078.74 22.424H1078.34C1078.34 23.5134 1078.07 24.4182 1077.49 25.0492C1076.92 25.6769 1076.02 26.064 1074.7 26.064V26.464ZM1078.74 22.424V15.208H1078.34V22.424H1078.74ZM1078.54 15.008H1077.24V15.408H1078.54V15.008ZM1077.04 15.208V16.456H1077.44V15.208H1077.04ZM1077.24 16.256H1077.21V16.656H1077.24V16.256ZM1077.37 16.3375C1076.71 15.4355 1075.64 14.912 1074.47 14.912V15.312C1075.52 15.312 1076.47 15.7805 1077.05 16.5745L1077.37 16.3375ZM1074.47 14.912C1072.16 14.912 1070.55 16.6757 1070.55 19H1070.95C1070.95 16.8763 1072.4 15.312 1074.47 15.312V14.912ZM1070.55 19C1070.55 21.4316 1072.29 23.056 1074.52 23.056V22.656C1072.5 22.656 1070.95 21.2084 1070.95 19H1070.55ZM1074.52 23.056C1075.79 23.056 1076.78 22.4966 1077.39 21.6098L1077.06 21.3822C1076.52 22.1594 1075.66 22.656 1074.52 22.656V23.056ZM1077.23 21.696H1077.26V21.296H1077.23V21.696ZM1077.06 21.496V22.744H1077.46V21.496H1077.06ZM1077.06 22.744C1077.06 23.3566 1076.86 23.8851 1076.48 24.2606C1076.09 24.6361 1075.49 24.88 1074.65 24.88V25.28C1075.57 25.28 1076.28 25.0119 1076.75 24.5474C1077.23 24.0829 1077.46 23.4434 1077.46 22.744H1077.06ZM1074.65 24.88C1073.58 24.88 1072.83 24.5915 1071.95 24.0904L1071.75 24.4376C1072.67 24.9605 1073.48 25.28 1074.65 25.28V24.88ZM1071.66 24.2105L1071.34 25.3625L1071.72 25.4695L1072.04 24.3175L1071.66 24.2105ZM1071.43 25.5872C1072.39 26.1674 1073.5 26.464 1074.7 26.464V26.064C1073.56 26.064 1072.53 25.7846 1071.63 25.2448L1071.43 25.5872ZM1074.68 21.456C1073.99 21.456 1073.39 21.2134 1072.96 20.7877C1072.53 20.3627 1072.26 19.7436 1072.26 18.968H1071.86C1071.86 19.8404 1072.16 20.5653 1072.68 21.0723C1073.19 21.5786 1073.9 21.856 1074.68 21.856V21.456ZM1072.26 18.968C1072.26 18.255 1072.51 17.6427 1072.93 17.2096C1073.35 16.7772 1073.96 16.512 1074.7 16.512V16.112C1073.86 16.112 1073.14 16.4148 1072.64 16.9304C1072.14 17.4453 1071.86 18.161 1071.86 18.968H1072.26ZM1074.7 16.512C1076.05 16.512 1077.09 17.4809 1077.09 18.936H1077.49C1077.49 17.2551 1076.26 16.112 1074.7 16.112V16.512ZM1077.09 18.936C1077.09 19.6672 1076.85 20.2964 1076.43 20.7412C1076.01 21.1847 1075.41 21.456 1074.68 21.456V21.856C1075.52 21.856 1076.22 21.5433 1076.72 21.0148C1077.22 20.4876 1077.49 19.7568 1077.49 18.936H1077.09Z" fill="black"/>
<path d="M1146.58 23.08C1148.58 23.08 1150.02 22.168 1151.01 20.936L1149.97 20.056C1149.17 21.064 1148.05 21.768 1146.58 21.768C1144.18 21.768 1142.37 20.072 1142.37 17.352C1142.37 14.744 1143.98 12.856 1146.56 12.856C1147.84 12.856 1149.01 13.4 1149.95 14.568L1150.99 13.704C1149.79 12.232 1148.19 11.528 1146.56 11.528C1142.93 11.528 1140.91 14.136 1140.91 17.352C1140.91 21.064 1143.5 23.08 1146.58 23.08ZM1156.44 23.096C1158.75 23.096 1160.46 21.48 1160.46 19.112C1160.46 16.744 1158.75 15.112 1156.44 15.112C1154.03 15.112 1152.41 16.872 1152.41 19.112C1152.41 21.352 1154.03 23.096 1156.44 23.096ZM1156.44 21.912C1154.83 21.912 1153.74 20.664 1153.74 19.112C1153.74 17.56 1154.81 16.296 1156.44 16.296C1157.95 16.296 1159.13 17.448 1159.13 19.112C1159.13 20.776 1157.93 21.912 1156.44 21.912ZM1162.55 15.208V23H1163.85V19.112C1163.85 17.352 1164.81 16.296 1166.28 16.296C1167.42 16.296 1168.2 16.92 1168.2 18.744V23H1169.5V18.376C1169.5 16.152 1168.38 15.112 1166.7 15.112C1165.5 15.112 1164.47 15.672 1163.86 16.616H1163.85V15.208H1162.55ZM1174.12 23.096C1175.05 23.096 1175.58 22.872 1176.01 22.616L1175.67 21.48C1175.29 21.688 1174.81 21.88 1174.35 21.88C1173.61 21.88 1173.4 21.432 1173.4 20.488V16.328H1175.98V15.208H1173.4V12.408L1172.11 12.552V15.208H1171.1V16.328H1172.11V20.68C1172.11 22.248 1172.75 23.096 1174.12 23.096ZM1180.79 23.096C1182.06 23.096 1183.02 22.52 1183.58 21.592H1183.59V23H1184.84V15.208H1183.54V16.584L1183.51 16.6C1182.95 15.656 1181.94 15.112 1180.79 15.112C1178.58 15.112 1177 16.856 1177 19.16C1177 21.528 1178.65 23.096 1180.79 23.096ZM1180.98 21.912C1179.38 21.912 1178.31 20.728 1178.31 19.16C1178.31 17.432 1179.51 16.296 1180.98 16.296C1182.52 16.296 1183.59 17.56 1183.59 19.16C1183.59 20.808 1182.42 21.912 1180.98 21.912ZM1190.72 23.096C1192.24 23.096 1193.28 22.52 1193.94 21.736L1193.04 20.92C1192.56 21.512 1191.74 21.912 1190.82 21.912C1189.23 21.912 1188.16 20.776 1188.16 19.112C1188.16 17.464 1189.23 16.296 1190.83 16.296C1191.76 16.296 1192.53 16.712 1193.02 17.288L1193.9 16.504C1193.14 15.592 1191.94 15.112 1190.77 15.112C1188.45 15.112 1186.83 16.76 1186.83 19.112C1186.83 21.48 1188.45 23.096 1190.72 23.096ZM1198.02 23.096C1198.95 23.096 1199.48 22.872 1199.91 22.616L1199.58 21.48C1199.19 21.688 1198.71 21.88 1198.25 21.88C1197.51 21.88 1197.3 21.432 1197.3 20.488V16.328H1199.88V15.208H1197.3V12.408L1196.01 12.552V15.208H1195V16.328H1196.01V20.68C1196.01 22.248 1196.65 23.096 1198.02 23.096Z" fill="black"/>
<path d="M1151.01 20.936L1151.16 21.0614L1151.29 20.9094L1151.14 20.7833L1151.01 20.936ZM1149.97 20.056L1150.1 19.9033L1149.94 19.77L1149.81 19.9317L1149.97 20.056ZM1149.95 14.568L1149.8 14.6937L1149.92 14.8514L1150.08 14.7218L1149.95 14.568ZM1150.99 13.704L1151.12 13.8578L1151.27 13.7312L1151.15 13.5776L1150.99 13.704ZM1146.58 23.28C1148.65 23.28 1150.14 22.3326 1151.16 21.0614L1150.85 20.8106C1149.89 22.0034 1148.51 22.88 1146.58 22.88V23.28ZM1151.14 20.7833L1150.1 19.9033L1149.84 20.2087L1150.88 21.0887L1151.14 20.7833ZM1149.81 19.9317C1149.04 20.9019 1147.98 21.568 1146.58 21.568V21.968C1148.12 21.968 1149.29 21.2261 1150.12 20.1803L1149.81 19.9317ZM1146.58 21.568C1145.42 21.568 1144.43 21.1618 1143.71 20.4397C1143 19.7178 1142.57 18.6665 1142.57 17.352H1142.17C1142.17 18.7575 1142.64 19.9142 1143.43 20.7203C1144.22 21.5262 1145.33 21.968 1146.58 21.968V21.568ZM1142.57 17.352C1142.57 16.0888 1142.96 15.0157 1143.65 14.2606C1144.33 13.5075 1145.32 13.056 1146.56 13.056V12.656C1145.22 12.656 1144.12 13.1485 1143.35 13.9914C1142.59 14.8323 1142.17 16.0071 1142.17 17.352H1142.57ZM1146.56 13.056C1147.78 13.056 1148.89 13.5695 1149.8 14.6937L1150.11 14.4423C1149.13 13.2305 1147.9 12.656 1146.56 12.656V13.056ZM1150.08 14.7218L1151.12 13.8578L1150.86 13.5502L1149.82 14.4142L1150.08 14.7218ZM1151.15 13.5776C1149.91 12.0595 1148.25 11.328 1146.56 11.328V11.728C1148.13 11.728 1149.67 12.4045 1150.84 13.8304L1151.15 13.5776ZM1146.56 11.328C1144.69 11.328 1143.23 12 1142.23 13.0995C1141.23 14.1963 1140.71 15.7031 1140.71 17.352H1141.11C1141.11 15.7849 1141.6 14.3797 1142.52 13.3685C1143.44 12.36 1144.8 11.728 1146.56 11.728V11.328ZM1140.71 17.352C1140.71 19.2573 1141.38 20.7441 1142.46 21.7539C1143.53 22.7616 1145 23.28 1146.58 23.28V22.88C1145.08 22.88 1143.72 22.3904 1142.73 21.4621C1141.74 20.5359 1141.11 19.1587 1141.11 17.352H1140.71ZM1156.44 23.296C1158.85 23.296 1160.66 21.5947 1160.66 19.112H1160.26C1160.26 21.3653 1158.64 22.896 1156.44 22.896V23.296ZM1160.66 19.112C1160.66 16.6304 1158.85 14.912 1156.44 14.912V15.312C1158.64 15.312 1160.26 16.8576 1160.26 19.112H1160.66ZM1156.44 14.912C1153.91 14.912 1152.21 16.7653 1152.21 19.112H1152.61C1152.61 16.9787 1154.14 15.312 1156.44 15.312V14.912ZM1152.21 19.112C1152.21 21.4598 1153.91 23.296 1156.44 23.296V22.896C1154.14 22.896 1152.61 21.2442 1152.61 19.112H1152.21ZM1156.44 21.712C1154.95 21.712 1153.94 20.5661 1153.94 19.112H1153.54C1153.54 20.7619 1154.7 22.112 1156.44 22.112V21.712ZM1153.94 19.112C1153.94 17.6556 1154.94 16.496 1156.44 16.496V16.096C1154.69 16.096 1153.54 17.4644 1153.54 19.112H1153.94ZM1156.44 16.496C1157.83 16.496 1158.93 17.5538 1158.93 19.112H1159.33C1159.33 17.3422 1158.06 16.096 1156.44 16.096V16.496ZM1158.93 19.112C1158.93 20.6679 1157.82 21.712 1156.44 21.712V22.112C1158.04 22.112 1159.33 20.8841 1159.33 19.112H1158.93ZM1162.55 15.208V15.008H1162.35V15.208H1162.55ZM1162.55 23H1162.35V23.2H1162.55V23ZM1163.85 23V23.2H1164.05V23H1163.85ZM1168.2 23H1168V23.2H1168.2V23ZM1169.5 23V23.2H1169.7V23H1169.5ZM1163.86 16.616V16.816H1163.97L1164.03 16.7243L1163.86 16.616ZM1163.85 16.616H1163.65V16.816H1163.85V16.616ZM1163.85 15.208H1164.05V15.008H1163.85V15.208ZM1162.35 15.208V23H1162.75V15.208H1162.35ZM1162.55 23.2H1163.85V22.8H1162.55V23.2ZM1164.05 23V19.112H1163.65V23H1164.05ZM1164.05 19.112C1164.05 18.2671 1164.28 17.6144 1164.66 17.1758C1165.04 16.7401 1165.59 16.496 1166.28 16.496V16.096C1165.49 16.096 1164.83 16.3799 1164.36 16.9122C1163.9 17.4416 1163.65 18.1969 1163.65 19.112H1164.05ZM1166.28 16.496C1166.81 16.496 1167.23 16.641 1167.52 16.9681C1167.81 17.3005 1168 17.8558 1168 18.744H1168.4C1168.4 17.8082 1168.2 17.1395 1167.82 16.7039C1167.43 16.263 1166.88 16.096 1166.28 16.096V16.496ZM1168 18.744V23H1168.4V18.744H1168ZM1168.2 23.2H1169.5V22.8H1168.2V23.2ZM1169.7 23V18.376H1169.3V23H1169.7ZM1169.7 18.376C1169.7 17.2326 1169.41 16.3618 1168.87 15.7753C1168.34 15.1863 1167.58 14.912 1166.7 14.912V15.312C1167.49 15.312 1168.13 15.5577 1168.58 16.0447C1169.02 16.5342 1169.3 17.2954 1169.3 18.376H1169.7ZM1166.7 14.912C1165.43 14.912 1164.34 15.5046 1163.7 16.5077L1164.03 16.7243C1164.6 15.8394 1165.56 15.312 1166.7 15.312V14.912ZM1163.86 16.416H1163.85V16.816H1163.86V16.416ZM1164.05 16.616V15.208H1163.65V16.616H1164.05ZM1163.85 15.008H1162.55V15.408H1163.85V15.008ZM1176.01 22.616L1176.11 22.7881L1176.25 22.7086L1176.2 22.5593L1176.01 22.616ZM1175.67 21.48L1175.87 21.4233L1175.8 21.1866L1175.58 21.3041L1175.67 21.48ZM1173.4 16.328V16.128H1173.2V16.328H1173.4ZM1175.98 16.328V16.528H1176.18V16.328H1175.98ZM1175.98 15.208H1176.18V15.008H1175.98V15.208ZM1173.4 15.208H1173.2V15.408H1173.4V15.208ZM1173.4 12.408H1173.6V12.1845L1173.38 12.2092L1173.4 12.408ZM1172.11 12.552L1172.08 12.3532L1171.91 12.373V12.552H1172.11ZM1172.11 15.208V15.408H1172.31V15.208H1172.11ZM1171.1 15.208V15.008H1170.9V15.208H1171.1ZM1171.1 16.328H1170.9V16.528H1171.1V16.328ZM1172.11 16.328H1172.31V16.128H1172.11V16.328ZM1174.12 23.296C1175.09 23.296 1175.65 23.06 1176.11 22.7881L1175.91 22.4439C1175.5 22.684 1175.01 22.896 1174.12 22.896V23.296ZM1176.2 22.5593L1175.87 21.4233L1175.48 21.5367L1175.82 22.6727L1176.2 22.5593ZM1175.58 21.3041C1175.21 21.5064 1174.76 21.68 1174.35 21.68V22.08C1174.86 22.08 1175.38 21.8696 1175.77 21.6559L1175.58 21.3041ZM1174.35 21.68C1174.02 21.68 1173.86 21.5858 1173.77 21.4319C1173.66 21.2537 1173.6 20.9565 1173.6 20.488H1173.2C1173.2 20.9635 1173.25 21.3623 1173.43 21.6441C1173.62 21.9502 1173.93 22.08 1174.35 22.08V21.68ZM1173.6 20.488V16.328H1173.2V20.488H1173.6ZM1173.4 16.528H1175.98V16.128H1173.4V16.528ZM1176.18 16.328V15.208H1175.78V16.328H1176.18ZM1175.98 15.008H1173.4V15.408H1175.98V15.008ZM1173.6 15.208V12.408H1173.2V15.208H1173.6ZM1173.38 12.2092L1172.08 12.3532L1172.13 12.7508L1173.42 12.6068L1173.38 12.2092ZM1171.91 12.552V15.208H1172.31V12.552H1171.91ZM1172.11 15.008H1171.1V15.408H1172.11V15.008ZM1170.9 15.208V16.328H1171.3V15.208H1170.9ZM1171.1 16.528H1172.11V16.128H1171.1V16.528ZM1171.91 16.328V20.68H1172.31V16.328H1171.91ZM1171.91 20.68C1171.91 21.4861 1172.07 22.1436 1172.44 22.6022C1172.82 23.0687 1173.39 23.296 1174.12 23.296V22.896C1173.48 22.896 1173.04 22.6993 1172.75 22.3498C1172.46 21.9924 1172.31 21.4419 1172.31 20.68H1171.91ZM1183.58 21.592V21.392H1183.46L1183.41 21.4887L1183.58 21.592ZM1183.59 21.592H1183.79V21.392H1183.59V21.592ZM1183.59 23H1183.39V23.2H1183.59V23ZM1184.84 23V23.2H1185.04V23H1184.84ZM1184.84 15.208H1185.04V15.008H1184.84V15.208ZM1183.54 15.208V15.008H1183.34V15.208H1183.54ZM1183.54 16.584L1183.63 16.7629L1183.74 16.7076V16.584H1183.54ZM1183.51 16.6L1183.34 16.702L1183.44 16.8621L1183.6 16.7789L1183.51 16.6ZM1180.79 23.296C1182.12 23.296 1183.15 22.6851 1183.75 21.6953L1183.41 21.4887C1182.88 22.3549 1181.99 22.896 1180.79 22.896V23.296ZM1183.58 21.792H1183.59V21.392H1183.58V21.792ZM1183.39 21.592V23H1183.79V21.592H1183.39ZM1183.59 23.2H1184.84V22.8H1183.59V23.2ZM1185.04 23V15.208H1184.64V23H1185.04ZM1184.84 15.008H1183.54V15.408H1184.84V15.008ZM1183.34 15.208V16.584H1183.74V15.208H1183.34ZM1183.45 16.4051L1183.42 16.4211L1183.6 16.7789L1183.63 16.7629L1183.45 16.4051ZM1183.68 16.498C1183.09 15.4884 1182.01 14.912 1180.79 14.912V15.312C1181.88 15.312 1182.82 15.8236 1183.34 16.702L1183.68 16.498ZM1180.79 14.912C1178.46 14.912 1176.8 16.7598 1176.8 19.16H1177.2C1177.2 16.9522 1178.71 15.312 1180.79 15.312V14.912ZM1176.8 19.16C1176.8 21.6362 1178.54 23.296 1180.79 23.296V22.896C1178.76 22.896 1177.2 21.4198 1177.2 19.16H1176.8ZM1180.98 21.712C1179.5 21.712 1178.51 20.6271 1178.51 19.16H1178.11C1178.11 20.8289 1179.26 22.112 1180.98 22.112V21.712ZM1178.51 19.16C1178.51 17.5363 1179.63 16.496 1180.98 16.496V16.096C1179.4 16.096 1178.11 17.3277 1178.11 19.16H1178.51ZM1180.98 16.496C1182.39 16.496 1183.39 17.6482 1183.39 19.16H1183.79C1183.79 17.4718 1182.65 16.096 1180.98 16.096V16.496ZM1183.39 19.16C1183.39 20.7015 1182.31 21.712 1180.98 21.712V22.112C1182.54 22.112 1183.79 20.9145 1183.79 19.16H1183.39ZM1193.94 21.736L1194.09 21.8643L1194.21 21.7173L1194.07 21.5881L1193.94 21.736ZM1193.04 20.92L1193.18 20.7721L1193.02 20.6295L1192.89 20.794L1193.04 20.92ZM1193.02 17.288L1192.87 17.4185L1193.01 17.5726L1193.16 17.4373L1193.02 17.288ZM1193.9 16.504L1194.04 16.6533L1194.18 16.5239L1194.06 16.3752L1193.9 16.504ZM1190.72 23.296C1192.3 23.296 1193.39 22.696 1194.09 21.8643L1193.78 21.6077C1193.17 22.344 1192.18 22.896 1190.72 22.896V23.296ZM1194.07 21.5881L1193.18 20.7721L1192.91 21.0679L1193.8 21.8839L1194.07 21.5881ZM1192.89 20.794C1192.45 21.3357 1191.69 21.712 1190.82 21.712V22.112C1191.8 22.112 1192.68 21.6883 1193.2 21.046L1192.89 20.794ZM1190.82 21.712C1190.07 21.712 1189.46 21.447 1189.04 20.9985C1188.61 20.549 1188.36 19.9007 1188.36 19.112H1187.96C1187.96 19.9873 1188.24 20.739 1188.75 21.2735C1189.26 21.809 1189.97 22.112 1190.82 22.112V21.712ZM1188.36 19.112C1188.36 18.3316 1188.61 17.6789 1189.04 17.223C1189.47 16.7682 1190.08 16.496 1190.83 16.496V16.096C1189.98 16.096 1189.26 16.4078 1188.75 16.949C1188.24 17.4891 1187.96 18.2444 1187.96 19.112H1188.36ZM1190.83 16.496C1191.7 16.496 1192.41 16.8835 1192.87 17.4185L1193.18 17.1575C1192.64 16.5405 1191.82 16.096 1190.83 16.096V16.496ZM1193.16 17.4373L1194.04 16.6533L1193.77 16.3547L1192.89 17.1387L1193.16 17.4373ZM1194.06 16.3752C1193.25 15.412 1191.99 14.912 1190.77 14.912V15.312C1191.89 15.312 1193.03 15.772 1193.75 16.6328L1194.06 16.3752ZM1190.77 14.912C1189.56 14.912 1188.52 15.3423 1187.79 16.0898C1187.05 16.8371 1186.63 17.8892 1186.63 19.112H1187.03C1187.03 17.9828 1187.42 17.0349 1188.07 16.3702C1188.73 15.7057 1189.66 15.312 1190.77 15.312V14.912ZM1186.63 19.112C1186.63 20.3425 1187.05 21.3908 1187.78 22.1322C1188.51 22.8738 1189.54 23.296 1190.72 23.296V22.896C1189.63 22.896 1188.71 22.5102 1188.07 21.8518C1187.42 21.1932 1187.03 20.2495 1187.03 19.112H1186.63ZM1199.91 22.616L1200.01 22.7881L1200.15 22.7086L1200.1 22.5593L1199.91 22.616ZM1199.58 21.48L1199.77 21.4233L1199.7 21.1866L1199.48 21.3041L1199.58 21.48ZM1197.3 16.328V16.128H1197.1V16.328H1197.3ZM1199.88 16.328V16.528H1200.08V16.328H1199.88ZM1199.88 15.208H1200.08V15.008H1199.88V15.208ZM1197.3 15.208H1197.1V15.408H1197.3V15.208ZM1197.3 12.408H1197.5V12.1845L1197.28 12.2092L1197.3 12.408ZM1196.01 12.552L1195.99 12.3532L1195.81 12.373V12.552H1196.01ZM1196.01 15.208V15.408H1196.21V15.208H1196.01ZM1195 15.208V15.008H1194.8V15.208H1195ZM1195 16.328H1194.8V16.528H1195V16.328ZM1196.01 16.328H1196.21V16.128H1196.01V16.328ZM1198.02 23.296C1198.99 23.296 1199.56 23.06 1200.01 22.7881L1199.81 22.4439C1199.41 22.684 1198.91 22.896 1198.02 22.896V23.296ZM1200.1 22.5593L1199.77 21.4233L1199.38 21.5367L1199.72 22.6727L1200.1 22.5593ZM1199.48 21.3041C1199.11 21.5064 1198.66 21.68 1198.25 21.68V22.08C1198.76 22.08 1199.28 21.8696 1199.67 21.6559L1199.48 21.3041ZM1198.25 21.68C1197.93 21.68 1197.77 21.5858 1197.67 21.4319C1197.56 21.2537 1197.5 20.9565 1197.5 20.488H1197.1C1197.1 20.9635 1197.15 21.3623 1197.33 21.6441C1197.52 21.9502 1197.84 22.08 1198.25 22.08V21.68ZM1197.5 20.488V16.328H1197.1V20.488H1197.5ZM1197.3 16.528H1199.88V16.128H1197.3V16.528ZM1200.08 16.328V15.208H1199.68V16.328H1200.08ZM1199.88 15.008H1197.3V15.408H1199.88V15.008ZM1197.5 15.208V12.408H1197.1V15.208H1197.5ZM1197.28 12.2092L1195.99 12.3532L1196.03 12.7508L1197.33 12.6068L1197.28 12.2092ZM1195.81 12.552V15.208H1196.21V12.552H1195.81ZM1196.01 15.008H1195V15.408H1196.01V15.008ZM1194.8 15.208V16.328H1195.2V15.208H1194.8ZM1195 16.528H1196.01V16.128H1195V16.528ZM1195.81 16.328V20.68H1196.21V16.328H1195.81ZM1195.81 20.68C1195.81 21.4861 1195.97 22.1436 1196.35 22.6022C1196.72 23.0687 1197.29 23.296 1198.02 23.296V22.896C1197.38 22.896 1196.94 22.6993 1196.66 22.3498C1196.36 21.9924 1196.21 21.4419 1196.21 20.68H1195.81Z" fill="black"/>
</svg>
